<svg xmlns="http://www.w3.org/2000/svg" width="268.84490966796875" height="289.1502380371094" viewBox="-30.988304138183594 -40.32290267944336 268.84490966796875 289.1502380371094"><title>Neo4j Graph Visualization</title><desc>Created using Neo4j (http://www.neo4j.com/)</desc><g class="layer relationships"><g class="relationship" transform="translate(116.53397823422948 -11.322902844397682) rotate(391.6166312764114)"><path class="outline" fill="#A5ABB6" stroke="none" d="M 25 0.5 L 33.48434786143542 0.5 L 33.48434786143542 -0.5 L 25 -0.5 Z M 67.92966036143542 0.5 L 76.41400822287083 0.5 L 76.41400822287083 3.5 L 83.41400822287083 0 L 76.41400822287083 -3.5 L 76.41400822287083 -0.5 L 67.92966036143542 -0.5 Z"/><text text-anchor="middle" pointer-events="none" font-size="8px" fill="#000000" x="50.70700411143542" y="3" font-family="sans-serif">ORIGIN</text></g><g class="relationship" transform="translate(116.53397823422948 -11.322902844397682) rotate(509.83123286146326)"><path class="outline" fill="#A5ABB6" stroke="none" d="M 25 0.5 L 26.04285076768023 0.5 L 26.04285076768023 -0.5 L 25 -0.5 Z M 74.71472576768022 0.5 L 75.75757653536046 0.5 L 75.75757653536046 3.5 L 82.75757653536046 0 L 75.75757653536046 -3.5 L 75.75757653536046 -0.5 L 74.71472576768022 -0.5 Z"/><text text-anchor="middle" pointer-events="none" font-size="8px" fill="#000000" x="50.37878826768023" y="3" transform="rotate(180 50.37878826768023 0)" font-family="sans-serif">DESTINA…</text></g><g class="relationship" transform="translate(-1.9883037101360075 147.54199783670236) rotate(283.6145868519037)"><path class="outline" fill="#A5ABB6" stroke="none" d="M 25 0.5 L 33.146747589093785 0.5 L 33.146747589093785 -0.5 L 25 -0.5 Z M 67.59206008909379 0.5 L 75.73880767818757 0.5 L 75.73880767818757 3.5 L 82.73880767818757 0 L 75.73880767818757 -3.5 L 75.73880767818757 -0.5 L 67.59206008909379 -0.5 Z"/><text text-anchor="middle" pointer-events="none" font-size="8px" fill="#000000" x="50.369403839093785" y="3" font-family="sans-serif">ORIGIN</text></g><g class="relationship" transform="translate(-1.9883037101360075 147.54199783670236) rotate(401.8294240116062)"><path class="outline" fill="#A5ABB6" stroke="none" d="M 25 0.5 L 26.357863671073275 0.5 L 26.357863671073275 -0.5 L 25 -0.5 Z M 75.02973867107328 0.5 L 76.38760234214655 0.5 L 76.38760234214655 3.5 L 83.38760234214655 0 L 76.38760234214655 -3.5 L 76.38760234214655 -0.5 L 75.02973867107328 -0.5 Z"/><text text-anchor="middle" pointer-events="none" font-size="8px" fill="#000000" x="50.693801171073275" y="3" font-family="sans-serif">DESTINA…</text></g></g><g class="layer nodes"><g class="node" transform="translate(208.85661566837183,45.51131040917524)"><circle class="outline" cx="0" cy="0" r="25" fill="#ECB5C9" stroke="#da7298" stroke-width="2px"/><text text-anchor="middle" pointer-events="none" font-family="sans-serif" dy="1.5625" font-size="25" fill="#2A2C34"/><text text-anchor="middle" pointer-events="none" x="0" y="5" font-size="10px" fill="#2A2C34" font-family="sans-serif"> MSN</text></g><g class="node" transform="translate(78.77494131112529,219.8273393321605)"><circle class="outline" cx="0" cy="0" r="25" fill="#ECB5C9" stroke="#da7298" stroke-width="2px"/><text text-anchor="middle" pointer-events="none" font-family="sans-serif" dy="1.5625" font-size="25" fill="#2A2C34"/><text text-anchor="middle" pointer-events="none" x="0" y="5" font-size="10px" fill="#2A2C34" font-family="sans-serif"> GRR</text></g><g class="node" transform="translate(116.53397823422948,-11.322902844397682)"><circle class="outline" cx="0" cy="0" r="25" fill="#4C8EDA" stroke="#2870c2" stroke-width="2px"/><text text-anchor="middle" pointer-events="none" font-family="sans-serif" dy="1.5625" font-size="25" fill="#FFFFFF"/><text text-anchor="middle" pointer-events="none" x="0" y="5" font-size="10px" fill="#FFFFFF" font-family="sans-serif"> 11/30/20…</text></g><g class="node" transform="translate(23.372286356927447,42.83053164809506)"><circle class="outline" cx="0" cy="0" r="25" fill="#ECB5C9" stroke="#da7298" stroke-width="2px"/><text text-anchor="middle" pointer-events="none" font-family="sans-serif" dy="1.5625" font-size="25" fill="#2A2C34"/><text text-anchor="middle" pointer-events="none" x="0" y="5" font-size="10px" fill="#2A2C34" font-family="sans-serif"> ORD</text></g><g class="node" transform="translate(-1.9883037101360075,147.54199783670236)"><circle class="outline" cx="0" cy="0" r="25" fill="#4C8EDA" stroke="#2870c2" stroke-width="2px"/><text text-anchor="middle" pointer-events="none" font-family="sans-serif" dy="1.5625" font-size="25" fill="#FFFFFF"/><text text-anchor="middle" pointer-events="none" x="0" y="5" font-size="10px" fill="#FFFFFF" font-family="sans-serif"> 11/17/20…</text></g></g></svg>