<svg xmlns="http://www.w3.org/2000/svg" width="395.82928466796875" height="410.3868103027344" viewBox="-138.44793701171875 -105.13583374023438 395.82928466796875 410.3868103027344"><title>Neo4j Graph Visualization</title><desc>Created using Neo4j (http://www.neo4j.com/)</desc><g class="layer relationships"><g class="relationship" transform="translate(-109.4479328984142 20.832268814476222) rotate(327.5474398609521)"><path class="outline" fill="#A5ABB6" stroke="none" d="M 24.018736134675446,-6.953439040707552 L 24.277555179777966,-5.987513214418485 A 116.1226680728054 116.1226680728054 0 0 1 41.631038946021164,-9.247586634471702 L 41.521660867564044,-10.241586853763934 A 117.1226680728054 117.1226680728054 0 0 0 24.018736134675446,-6.953439040707552 Z M 63.59239447213219,-10.577657952476287 L 63.513331372056314,-9.580788339033091 A 116.1226680728054 116.1226680728054 0 0 1 80.95802906410444,-6.850586888140845 L 80.27016037504868,-3.930512117417207 L 87.8861816439689,-5.732239075464674 L 81.8751873161788,-10.744019915772363 L 81.18731862712303,-7.823945145048724 A 117.1226680728054 117.1226680728054 0 0 0 63.59239447213219,-10.577657952476287"/><text text-anchor="middle" pointer-events="none" font-size="8px" fill="#000000" x="52.556705512667406" y="-7.430779370623384" font-family="sans-serif">road</text></g><g class="relationship" transform="translate(-14.752536999817696 -39.38518200594309) rotate(341.53627659035806)"><path class="outline" fill="#A5ABB6" stroke="none" d="M 21.40063509461097,-12.933012701892217 L 21.90063509461097,-12.06698729810778 A 68.80124827140057 68.80124827140057 0 0 1 31.813760666224077,-16.779347298602218 L 31.45784417954216,-17.713865064355232 A 69.80124827140057 69.80124827140057 0 0 0 21.40063509461097,-12.933012701892217 Z M 77.36738050018808,-19.029829425401118 L 77.06557900248465,-18.076458639198833 A 68.80124827140057 68.80124827140057 0 0 1 87.23235901489964,-13.939674918481872 L 85.88364366910064,-11.259942298236659 L 93.70985435310497,-11.239294548325061 L 89.03064614263165,-17.512651745475488 L 87.68193079683265,-14.832919125230275 A 69.80124827140057 69.80124827140057 0 0 0 77.36738050018808,-19.029829425401118"/><text text-anchor="middle" pointer-events="none" font-size="8px" fill="#000000" x="54.31560358547486" y="-18.7561538909644" font-family="sans-serif">twowheeler</text></g><g class="relationship" transform="translate(95.31514047589664 -76.1358372633077) rotate(434.4203554066198)"><path class="outline" fill="#A5ABB6" stroke="none" d="M 21.40063509461097,12.933012701892217 L 21.90063509461097,12.06698729810778 A 65.39012579800935 65.39012579800935 0 0 0 30.216854531265348,16.113176976457375 L 29.8440330514955,17.041080066344584 A 66.39012579800935 66.39012579800935 0 0 1 21.40063509461097,12.933012701892217 Z M 75.67751983084182,18.391473034623033 L 75.35997529264698,17.443229676479866 A 65.39012579800935 65.39012579800935 0 0 0 83.89998828682033,13.893675522628804 L 82.55555180185046,11.211793620329258 L 90.38178547301426,11.203637374749004 L 85.69257026678018,17.469518059028196 L 84.3481337818103,14.787636156728652 A 66.39012579800935 66.39012579800935 0 0 1 75.67751983084182,18.391473034623033"/><text text-anchor="middle" pointer-events="none" font-size="8px" fill="#000000" x="52.65521790856678" y="24.29902299696684" font-family="sans-serif">twowheeler</text></g><g class="relationship" transform="translate(125.59211101963317 32.45301401611886) rotate(395.3334945185749)"><path class="outline" fill="#A5ABB6" stroke="none" d="M 25 0.5 L 47.82120573494341 0.5 L 47.82120573494341 -0.5 L 25 -0.5 Z M 67.15714323494342 0.5 L 89.97834896988682 0.5 L 89.97834896988682 3.5 L 96.97834896988682 0 L 89.97834896988682 -3.5 L 89.97834896988682 -0.5 L 67.15714323494342 -0.5 Z"/><text text-anchor="middle" pointer-events="none" font-size="8px" fill="#000000" x="57.48917448494341" y="3" font-family="sans-serif">trek</text></g><g class="relationship" transform="translate(95.31514047589664 -76.1358372633077) rotate(434.4203554066198)"><path class="outline" fill="#A5ABB6" stroke="none" d="M 25 0.5 L 41.85954128775523 0.5 L 41.85954128775523 -0.5 L 25 -0.5 Z M 63.87126003775523 0.5 L 80.73080132551046 0.5 L 80.73080132551046 3.5 L 87.73080132551046 0 L 80.73080132551046 -3.5 L 80.73080132551046 -0.5 L 63.87126003775523 -0.5 Z"/><text text-anchor="middle" pointer-events="none" font-size="8px" fill="#000000" x="52.86540066275523" y="3" font-family="sans-serif">road</text></g><g class="relationship" transform="translate(95.31514047589664 -76.1358372633077) rotate(434.4203554066198)"><path class="outline" fill="#A5ABB6" stroke="none" d="M 21.40063509461097,-12.933012701892217 L 21.90063509461097,-12.06698729810778 A 65.39012579800935 65.39012579800935 0 0 1 43.13456874432768,-19.81535436489598 L 42.95929565669528,-20.799874219826194 A 66.39012579800935 66.39012579800935 0 0 0 21.40063509461097,-12.933012701892217 Z M 62.363708641149735,-21.371586840642692 L 62.24670312934866,-20.37845557529647 A 65.39012579800935 65.39012579800935 0 0 1 83.89998828682033,-13.893675522628804 L 82.55555180185046,-11.211793620329258 L 90.38178547301426,-11.203637374749004 L 85.69257026678018,-17.469518059028196 L 84.3481337818103,-14.787636156728652 A 66.39012579800935 66.39012579800935 0 0 0 62.363708641149735,-21.371586840642692"/><text text-anchor="middle" pointer-events="none" font-size="8px" fill="#000000" x="52.65521790856679" y="-18.29902299696684" font-family="sans-serif">trek</text></g><g class="relationship" transform="translate(-14.752536999817696 -39.38518200594309) rotate(341.53627659035806)"><path class="outline" fill="#A5ABB6" stroke="none" d="M 25 0.5 L 43.514620385907556 0.5 L 43.514620385907556 -0.5 L 25 -0.5 Z M 65.52633913590756 0.5 L 84.04095952181511 0.5 L 84.04095952181511 3.5 L 91.04095952181511 0 L 84.04095952181511 -3.5 L 84.04095952181511 -0.5 L 65.52633913590756 -0.5 Z"/><text text-anchor="middle" pointer-events="none" font-size="8px" fill="#000000" x="54.520479760907556" y="3" font-family="sans-serif">road</text></g><g class="relationship" transform="translate(-14.752536999817696 -39.38518200594309) rotate(341.53627659035806)"><path class="outline" fill="#A5ABB6" stroke="none" d="M 21.40063509461097,12.933012701892217 L 21.90063509461097,12.06698729810778 A 68.80124827140057 68.80124827140057 0 0 0 44.785897401584535,20.314090497741546 L 44.618525993099304,21.29998441273527 A 69.80124827140057 69.80124827140057 0 0 1 21.40063509461097,12.933012701892217 Z M 64.02288929526713,21.856196751193494 L 63.91226620103632,20.862334320560976 A 68.80124827140057 68.80124827140057 0 0 0 87.23235901489964,13.939674918481872 L 85.88364366910064,11.259942298236659 L 93.70985435310497,11.239294548325061 L 89.03064614263165,17.512651745475488 L 87.68193079683265,14.832919125230275 A 69.80124827140057 69.80124827140057 0 0 1 64.02288929526713,21.856196751193494"/><text text-anchor="middle" pointer-events="none" font-size="8px" fill="#000000" x="54.31560358547486" y="24.7561538909644" font-family="sans-serif">trek</text></g><g class="relationship" transform="translate(-109.4479328984142 20.832268814476222) rotate(327.5474398609521)"><path class="outline" fill="#A5ABB6" stroke="none" d="M 24.018736134675446,6.953439040707552 L 24.277555179777966,5.987513214418485 A 116.1226680728054 116.1226680728054 0 0 0 42.95600768270162,9.385696669996051 L 42.85803968255797,10.380886235329143 A 117.1226680728054 117.1226680728054 0 0 1 24.018736134675446,6.953439040707552 Z M 62.25239398282939,10.67620410175293 L 62.18477188312818,9.678493095683535 A 116.1226680728054 116.1226680728054 0 0 0 80.95802906410444,6.850586888140845 L 80.27016037504868,3.930512117417207 L 87.8861816439689,5.732239075464674 L 81.8751873161788,10.744019915772363 L 81.18731862712303,7.823945145048724 A 117.1226680728054 117.1226680728054 0 0 1 62.25239398282939,10.67620410175293"/><text text-anchor="middle" pointer-events="none" font-size="8px" fill="#000000" x="52.55670551266741" y="13.430779370623384" font-family="sans-serif">trek</text></g><g class="relationship" transform="translate(-109.4479328984142 20.832268814476222) rotate(384.7040409723292)"><path class="outline" fill="#A5ABB6" stroke="none" d="M 21.40063509461097,12.933012701892217 L 21.90063509461097,12.06698729810778 A 77.15921688452624 77.15921688452624 0 0 0 48.84596156184105,21.522194530159396 L 48.695178772113614,22.510761447632362 A 78.15921688452624 78.15921688452624 0 0 1 21.40063509461097,12.933012701892217 Z M 68.09837462122036,23.03220893532624 L 68.00090523260556,22.03697041201484 A 77.15921688452624 77.15921688452624 0 0 0 95.41517597761491,14.04263981177223 L 94.05688332569402,11.367748959468587 L 101.8829700749769,11.319105432674087 L 97.22623284684276,17.609160948177088 L 95.86794019492187,14.934270095873444 A 78.15921688452624 78.15921688452624 0 0 1 68.09837462122036,23.03220893532624"/><text text-anchor="middle" pointer-events="none" font-size="8px" fill="#000000" x="58.39395896928502" y="25.876333555949174" font-family="sans-serif">trek</text></g><g class="relationship" transform="translate(3.361253816862783 72.72833719919848) rotate(437.4866416547105)"><path class="outline" fill="#A5ABB6" stroke="none" d="M 24.018736134675446,-6.953439040707552 L 24.277555179777966,-5.987513214418485 A 140.30281658305773 140.30281658305773 0 0 1 35.6361110174058,-8.531158909142306 L 35.4582494050495,-9.515214419187345 A 141.30281658305773 141.30281658305773 0 0 0 24.018736134675446,-6.953439040707552 Z M 81.87237012308049,-10.15638697629754 L 81.72175901394118,-9.167793888215357 A 140.30281658305773 140.30281658305773 0 0 1 93.1462438428571,-6.938876991903085 L 92.45012850228048,-4.020757146417999 L 100.07120937241841,-5.8009611714718226 L 94.0743976302926,-10.829703452549865 L 93.37828228971597,-7.911583607064779 A 141.30281658305773 141.30281658305773 0 0 0 81.87237012308049,-10.15638697629754"/><text text-anchor="middle" pointer-events="none" font-size="8px" fill="#000000" x="58.645707702746776" y="-8.254782889442112" font-family="sans-serif">twowheeler</text></g><g class="relationship" transform="translate(30.31224658340848 194.16241870366) rotate(350.5676350492147)"><path class="outline" fill="#A5ABB6" stroke="none" d="M 24.018736134675446,-6.953439040707552 L 24.277555179777966,-5.987513214418485 A 112.77908693458824 112.77908693458824 0 0 1 28.79647241116,-7.098956212186039 L 28.5777221177579,-8.074737083661034 A 113.77908693458824 113.77908693458824 0 0 0 24.018736134675446,-6.953439040707552 Z M 74.91564556316294,-8.790410855481625 L 74.72713363734856,-7.808339954871201 A 112.77908693458824 112.77908693458824 0 0 1 79.278219063727,-6.83698012289656 L 78.59162133543606,-3.9166062496560596 L 86.20685772266998,-5.721647735757795 L 80.19368270144824,-10.730811953883896 L 79.5070849731573,-7.810438080643395 A 113.77908693458824 113.77908693458824 0 0 0 74.91564556316294,-8.790410855481625"/><text text-anchor="middle" pointer-events="none" font-size="8px" fill="#000000" x="51.71758168414933" y="-7.316859162542372" font-family="sans-serif">twowheeler</text></g><g class="relationship" transform="translate(139.36097960670173 176.04622498800364) rotate(319.5699496378686)"><path class="outline" fill="#A5ABB6" stroke="none" d="M 24.018736134675446,6.953439040707552 L 24.277555179777966,5.987513214418485 A 116.95846747261264 116.95846747261264 0 0 0 29.82842741244401,7.330512881545118 L 29.617068567125365,8.307921413585618 A 117.95846747261264 117.95846747261264 0 0 1 24.018736134675446,6.953439040707552 Z M 75.97070832085055,9.01126910823615 L 75.7891013982434,8.027897903826968 A 116.95846747261264 116.95846747261264 0 0 0 81.37816487514702,6.853930229473936 L 80.6899838975602,3.9339290407605407 L 88.30619781174275,5.734841479890237 L 82.29573951192945,10.747265147758462 L 81.60755853434263,7.827263959045067 A 117.95846747261264 117.95846747261264 0 0 1 75.97070832085055,9.01126910823615"/><text text-anchor="middle" pointer-events="none" font-size="8px" fill="#000000" x="52.766581245863996" y="13.459257126797226" font-family="sans-serif">twowheeler</text></g><g class="relationship" transform="translate(139.36097960670173 176.04622498800364) rotate(319.5699496378686)"><path class="outline" fill="#A5ABB6" stroke="none" d="M 24.018736134675446,-6.953439040707552 L 24.277555179777966,-5.987513214418485 A 116.95846747261264 116.95846747261264 0 0 1 43.16533391442165,-9.417502957679005 L 43.068006201608235,-10.412755345929597 A 117.95846747261264 117.95846747261264 0 0 0 24.018736134675446,-6.953439040707552 Z M 62.46210227004146,-10.707031973008654 L 62.39501536740614,-9.709284836959242 A 116.95846747261264 116.95846747261264 0 0 1 81.37816487514702,-6.853930229473936 L 80.6899838975602,-3.9339290407605407 L 88.30619781174275,-5.734841479890237 L 82.29573951192945,-10.747265147758462 L 81.60755853434263,-7.827263959045067 A 117.95846747261264 117.95846747261264 0 0 0 62.46210227004146,-10.707031973008654"/><text text-anchor="middle" pointer-events="none" font-size="8px" fill="#000000" x="52.76658124586394" y="-7.459257126797226" font-family="sans-serif">trek</text></g><g class="relationship" transform="translate(30.31224658340848 194.16241870366) rotate(350.5676350492147)"><path class="outline" fill="#A5ABB6" stroke="none" d="M 24.018736134675446,6.953439040707552 L 24.277555179777966,5.987513214418485 A 112.77908693458824 112.77908693458824 0 0 0 42.11917403132794,9.258013195227662 L 42.01855469626472,10.252938192105034 A 113.77908693458824 113.77908693458824 0 0 1 24.018736134675446,6.953439040707552 Z M 61.41395661318116,10.552493705467853 L 61.3441105100038,9.554935926754794 A 112.77908693458824 112.77908693458824 0 0 0 79.278219063727,6.83698012289656 L 78.59162133543606,3.9166062496560596 L 86.20685772266998,5.721647735757795 L 80.19368270144824,10.730811953883896 L 79.5070849731573,7.810438080643395 A 113.77908693458824 113.77908693458824 0 0 1 61.41395661318116,10.552493705467853"/><text text-anchor="middle" pointer-events="none" font-size="8px" fill="#000000" x="51.71758168414936" y="13.316859162542372" font-family="sans-serif">trek</text></g><g class="relationship" transform="translate(3.361253816862783 72.72833719919848) rotate(437.4866416547105)"><path class="outline" fill="#A5ABB6" stroke="none" d="M 24.018736134675446,6.953439040707552 L 24.277555179777966,5.987513214418485 A 140.30281658305773 140.30281658305773 0 0 0 49.032030013013745,10.29129051566099 L 48.94964701842046,11.287891259289978 A 141.30281658305773 141.30281658305773 0 0 1 24.018736134675446,6.953439040707552 Z M 68.33715391472887,11.555713576731137 L 68.28233152753904,10.557217454624094 A 140.30281658305773 140.30281658305773 0 0 0 93.1462438428571,6.938876991903085 L 92.45012850228048,4.020757146417999 L 100.07120937241841,5.8009611714718226 L 94.0743976302926,10.829703452549865 L 93.37828228971597,7.911583607064779 A 141.30281658305773 141.30281658305773 0 0 1 68.33715391472887,11.555713576731137"/><text text-anchor="middle" pointer-events="none" font-size="8px" fill="#000000" x="58.64570770274682" y="14.254782889442112" font-family="sans-serif">trek</text></g><g class="relationship" transform="translate(3.361253816862783 72.72833719919848) rotate(341.76284027671784)"><path class="outline" fill="#A5ABB6" stroke="none" d="M 25 0.5 L 51.179688763746285 0.5 L 51.179688763746285 -0.5 L 25 -0.5 Z M 70.51562626374628 0.5 L 96.69531502749257 0.5 L 96.69531502749257 3.5 L 103.69531502749257 0 L 96.69531502749257 -3.5 L 96.69531502749257 -0.5 L 70.51562626374628 -0.5 Z"/><text text-anchor="middle" pointer-events="none" font-size="8px" fill="#000000" x="60.847657513746285" y="3" font-family="sans-serif">trek</text></g><g class="relationship" transform="translate(-109.4479328984142 20.832268814476222) rotate(384.7040409723292)"><path class="outline" fill="#A5ABB6" stroke="none" d="M 25 0.5 L 47.58100421375361 0.5 L 47.58100421375361 -0.5 L 25 -0.5 Z M 69.5927229637536 0.5 L 92.17372717750722 0.5 L 92.17372717750722 3.5 L 99.17372717750722 0 L 92.17372717750722 -3.5 L 92.17372717750722 -0.5 L 69.5927229637536 -0.5 Z"/><text text-anchor="middle" pointer-events="none" font-size="8px" fill="#000000" x="58.58686358875361" y="3" font-family="sans-serif">road</text></g><g class="relationship" transform="translate(-109.4479328984142 20.832268814476222) rotate(384.7040409723292)"><path class="outline" fill="#A5ABB6" stroke="none" d="M 21.40063509461097,-12.933012701892217 L 21.90063509461097,-12.06698729810778 A 77.15921688452624 77.15921688452624 0 0 1 28.716004618442604,-15.562837823225294 L 28.304333269237894,-16.474170199608338 A 78.15921688452624 78.15921688452624 0 0 0 21.40063509461097,-12.933012701892217 Z M 88.78401195865571,-18.09951979430315 L 88.42188232698862,-17.167392050982173 A 77.15921688452624 77.15921688452624 0 0 1 95.41517597761491,-14.04263981177223 L 94.05688332569402,-11.367748959468587 L 101.8829700749769,-11.319105432674087 L 97.22623284684276,-17.609160948177088 L 95.86794019492187,-14.934270095873444 A 78.15921688452624 78.15921688452624 0 0 0 88.78401195865571,-18.09951979430315"/><text text-anchor="middle" pointer-events="none" font-size="8px" fill="#000000" x="58.393958969285016" y="-19.876333555949174" font-family="sans-serif">PublicTransport</text></g><g class="relationship" transform="translate(3.361253816862783 72.72833719919848) rotate(260.82223008137703)"><path class="outline" fill="#A5ABB6" stroke="none" d="M 25 0.5 L 43.615723024822344 0.5 L 43.615723024822344 -0.5 L 25 -0.5 Z M 62.951660524822344 0.5 L 81.56738354964469 0.5 L 81.56738354964469 3.5 L 88.56738354964469 0 L 81.56738354964469 -3.5 L 81.56738354964469 -0.5 L 62.951660524822344 -0.5 Z"/><text text-anchor="middle" pointer-events="none" font-size="8px" fill="#000000" x="53.283691774822344" y="3" transform="rotate(180 53.283691774822344 0)" font-family="sans-serif">trek</text></g><g class="relationship" transform="translate(30.31224658340848 194.16241870366) rotate(403.46581726773326)"><path class="outline" fill="#A5ABB6" stroke="none" d="M 24.018736134675446,-6.953439040707552 L 24.277555179777966,-5.987513214418485 A 130.26383218417578 130.26383218417578 0 0 1 46.504677587801254,-9.918624084958424 L 46.41649011429719,-10.914727979899595 A 131.26383218417578 131.26383218417578 0 0 0 24.018736134675446,-6.953439040707552 Z M 65.80668207855385,-11.193337741279123 L 65.7471503239841,-10.195111328986883 A 130.26383218417578 130.26383218417578 0 0 1 88.07804250096964,-6.904236400100301 L 87.38516268561112,-3.985346617756894 L 95.00426529566401,-5.773998461320991 L 89.001882254781,-10.796089443224844 L 88.30900243942247,-7.877199660881437 A 131.26383218417578 131.26383218417578 0 0 0 65.80668207855385,-11.193337741279123"/><text text-anchor="middle" pointer-events="none" font-size="8px" fill="#000000" x="56.11361758012387" y="-7.912649232505686" font-family="sans-serif">trek</text></g><g class="relationship" transform="translate(116.91896064318318 276.2509771842135) rotate(282.6237430952457)"><path class="outline" fill="#A5ABB6" stroke="none" d="M 21.40063509461097,12.933012701892217 L 21.90063509461097,12.06698729810778 A 55.00021965526462 55.00021965526462 0 0 0 25.43924170748478,13.941667403676014 L 25.003579752588116,14.841777764162778 A 56.00021965526462 56.00021965526462 0 0 1 21.40063509461097,12.933012701892217 Z M 70.50620706935516,16.306240120189507 L 70.12932529501506,15.379978748777397 A 55.00021965526462 55.00021965526462 0 0 0 73.78115381215403,13.736716523720784 L 72.4513186382552,11.047564536520825 L 80.27748097793707,11.081959782490191 L 75.55426737735246,17.322252506654063 L 74.22443220345363,14.633100519454104 A 56.00021965526462 56.00021965526462 0 0 1 70.50620706935516,16.306240120189507"/><text text-anchor="middle" pointer-events="none" font-size="8px" fill="#000000" x="47.615443164975495" y="22.906897764262155" font-family="sans-serif">twowheeler</text></g><g class="relationship" transform="translate(116.91896064318318 276.2509771842135) rotate(282.6237430952457)"><path class="outline" fill="#A5ABB6" stroke="none" d="M 25 0.5 L 36.83768106063503 0.5 L 36.83768106063503 -0.5 L 25 -0.5 Z M 58.84939981063503 0.5 L 70.68708087127006 0.5 L 70.68708087127006 3.5 L 77.68708087127006 0 L 70.68708087127006 -3.5 L 70.68708087127006 -0.5 L 58.84939981063503 -0.5 Z"/><text text-anchor="middle" pointer-events="none" font-size="8px" fill="#000000" x="47.84354043563503" y="3" font-family="sans-serif">road</text></g><g class="relationship" transform="translate(116.91896064318318 276.2509771842135) rotate(282.6237430952457)"><path class="outline" fill="#A5ABB6" stroke="none" d="M 21.40063509461097,-12.933012701892217 L 21.90063509461097,-12.06698729810778 A 55.00021965526462 55.00021965526462 0 0 1 38.130746139964444,-18.26858005483571 L 37.92583788954439,-19.247361240244274 A 56.00021965526462 56.00021965526462 0 0 0 21.40063509461097,-12.933012701892217 Z M 57.327405161731754,-19.8717837537014 L 57.18585821266112,-18.881852210003153 A 55.00021965526462 55.00021965526462 0 0 1 73.78115381215403,-13.736716523720784 L 72.4513186382552,-11.047564536520825 L 80.27748097793707,-11.081959782490191 L 75.55426737735246,-17.322252506654063 L 74.22443220345363,-14.633100519454104 A 56.00021965526462 56.00021965526462 0 0 0 57.327405161731754,-19.8717837537014"/><text text-anchor="middle" pointer-events="none" font-size="8px" fill="#000000" x="47.61544316497549" y="-16.906897764262155" font-family="sans-serif">trek</text></g><g class="relationship" transform="translate(30.31224658340848 194.16241870366) rotate(403.46581726773326)"><path class="outline" fill="#A5ABB6" stroke="none" d="M 24.018736134675446,6.953439040707552 L 24.277555179777966,5.987513214418485 A 130.26383218417578 130.26383218417578 0 0 0 33.13061378531128,8.031628585147885 L 32.93975726255354,9.013246529014452 A 131.26383218417578 131.26383218417578 0 0 1 24.018736134675446,6.953439040707552 Z M 79.33248330633586,9.679844691458158 L 79.16990868761445,8.693148439642243 A 130.26383218417578 130.26383218417578 0 0 0 88.07804250096964,6.904236400100301 L 87.38516268561112,3.985346617756894 L 95.00426529566401,5.773998461320991 L 89.001882254781,10.796089443224844 L 88.30900243942247,7.877199660881437 A 131.26383218417578 131.26383218417578 0 0 1 79.33248330633586,9.679844691458158"/><text text-anchor="middle" pointer-events="none" font-size="8px" fill="#000000" x="56.11361758012386" y="13.912649232505686" font-family="sans-serif">twowheeler</text></g><g class="relationship" transform="translate(116.91896064318318 276.2509771842135) rotate(334.56499199807286)"><path class="outline" fill="#A5ABB6" stroke="none" d="M 25 0.5 L 48.5448704583562 0.5 L 48.5448704583562 -0.5 L 25 -0.5 Z M 67.8808079583562 0.5 L 91.4256784167124 0.5 L 91.4256784167124 3.5 L 98.4256784167124 0 L 91.4256784167124 -3.5 L 91.4256784167124 -0.5 L 67.8808079583562 -0.5 Z"/><text text-anchor="middle" pointer-events="none" font-size="8px" fill="#000000" x="58.2128392083562" y="3" font-family="sans-serif">trek</text></g><g class="relationship" transform="translate(228.38136360967795 223.2412533822501) rotate(268.4377849811026)"><path class="outline" fill="#A5ABB6" stroke="none" d="M 25 0.5 L 46.97635417082937 0.5 L 46.97635417082937 -0.5 L 25 -0.5 Z M 66.31229167082937 0.5 L 88.28864584165873 0.5 L 88.28864584165873 3.5 L 95.28864584165873 0 L 88.28864584165873 -3.5 L 88.28864584165873 -0.5 L 66.31229167082937 -0.5 Z"/><text text-anchor="middle" pointer-events="none" font-size="8px" fill="#000000" x="56.64432292082937" y="3" transform="rotate(180 56.64432292082937 0)" font-family="sans-serif">trek</text></g></g><g class="layer nodes"><g class="node" transform="translate(-109.4479328984142,20.832268814476222)"><circle class="outline" cx="0" cy="0" r="25" fill="#F16667" stroke="#eb2728" stroke-width="2px"/><text text-anchor="middle" pointer-events="none" font-family="sans-serif" dy="1.5625" font-size="25" fill="#FFFFFF"/><text text-anchor="middle" pointer-events="none" x="0" y="5" font-size="10px" fill="#FFFFFF" font-family="sans-serif"> Darjeeling</text></g><g class="node" transform="translate(225.10200432743144,102.99731748060913)"><circle class="outline" cx="0" cy="0" r="25" fill="#D9C8AE" stroke="#c0a378" stroke-width="2px"/><text text-anchor="middle" pointer-events="none" font-family="sans-serif" dy="1.5625" font-size="25" fill="#2A2C34"/><text text-anchor="middle" pointer-events="none" x="0" y="5" font-size="10px" fill="#2A2C34" font-family="sans-serif"> Sandak…</text></g><g class="node" transform="translate(139.36097960670173,176.04622498800364)"><circle class="outline" cx="0" cy="0" r="25" fill="#8DCC93" stroke="#5db665" stroke-width="2px"/><text text-anchor="middle" pointer-events="none" font-family="sans-serif" dy="1.5625" font-size="25" fill="#2A2C34"/><text text-anchor="middle" pointer-events="none" x="0" y="5" font-size="10px" fill="#2A2C34" font-family="sans-serif"> Gurdum</text></g><g class="node" transform="translate(-14.752536999817696,-39.38518200594309)"><circle class="outline" cx="0" cy="0" r="25" fill="#8DCC93" stroke="#5db665" stroke-width="2px"/><text text-anchor="middle" pointer-events="none" font-family="sans-serif" dy="1.5625" font-size="25" fill="#2A2C34"/><text text-anchor="middle" pointer-events="none" x="0" y="5" font-size="10px" fill="#2A2C34" font-family="sans-serif"> Tumbling</text></g><g class="node" transform="translate(95.31514047589664,-76.1358372633077)"><circle class="outline" cx="0" cy="0" r="25" fill="#8DCC93" stroke="#5db665" stroke-width="2px"/><text text-anchor="middle" pointer-events="none" font-family="sans-serif" dy="1.5625" font-size="25" fill="#2A2C34"/><text text-anchor="middle" pointer-events="none" x="0" y="5" font-size="10px" fill="#2A2C34" font-family="sans-serif"> Gairibus</text></g><g class="node" transform="translate(125.59211101963317,32.45301401611886)"><circle class="outline" cx="0" cy="0" r="25" fill="#8DCC93" stroke="#5db665" stroke-width="2px"/><text text-anchor="middle" pointer-events="none" font-family="sans-serif" dy="1.5625" font-size="25" fill="#2A2C34"/><text text-anchor="middle" pointer-events="none" x="0" y="5" font-size="10px" fill="#2A2C34" font-family="sans-serif"> BhikeBh…</text></g><g class="node" transform="translate(3.361253816862783,72.72833719919848)"><circle class="outline" cx="0" cy="0" r="25" fill="#F16667" stroke="#eb2728" stroke-width="2px"/><text text-anchor="middle" pointer-events="none" font-family="sans-serif" dy="1.5625" font-size="25" fill="#FFFFFF"/><text text-anchor="middle" pointer-events="none" x="0" y="5" font-size="10px" fill="#FFFFFF" font-family="sans-serif"> Rimbik</text></g><g class="node" transform="translate(30.31224658340848,194.16241870366)"><circle class="outline" cx="0" cy="0" r="25" fill="#8DCC93" stroke="#5db665" stroke-width="2px"/><text text-anchor="middle" pointer-events="none" font-family="sans-serif" dy="1.5625" font-size="25" fill="#2A2C34"/><text text-anchor="middle" pointer-events="none" x="0" y="5" font-size="10px" fill="#2A2C34" font-family="sans-serif"> Sirikhola</text></g><g class="node" transform="translate(116.91896064318318,276.2509771842135)"><circle class="outline" cx="0" cy="0" r="25" fill="#8DCC93" stroke="#5db665" stroke-width="2px"/><text text-anchor="middle" pointer-events="none" font-family="sans-serif" dy="1.5625" font-size="25" fill="#2A2C34"/><text text-anchor="middle" pointer-events="none" x="0" y="5" font-size="10px" fill="#2A2C34" font-family="sans-serif"> Rammam</text></g><g class="node" transform="translate(228.38136360967795,223.2412533822501)"><circle class="outline" cx="0" cy="0" r="25" fill="#D9C8AE" stroke="#c0a378" stroke-width="2px"/><text text-anchor="middle" pointer-events="none" font-family="sans-serif" dy="1.5625" font-size="25" fill="#2A2C34"/><text text-anchor="middle" pointer-events="none" x="0" y="5" font-size="10px" fill="#2A2C34" font-family="sans-serif"> Sabargr…</text></g></g></svg>