<svg xmlns="http://www.w3.org/2000/svg" width="655.0511474609375" height="648.888427734375" viewBox="-234.23898315429688 -216.8279266357422 655.0511474609375 648.888427734375"><title>Neo4j Graph Visualization</title><desc>Created using Neo4j (http://www.neo4j.com/)</desc><g class="layer relationships"><g class="relationship" transform="translate(235.81622168783593 131.55906760617626) rotate(181.33602723114308)"><path class="outline" fill="#A5ABB6" stroke="none" d="M 25 0.5 L 61.991847562163386 0.5 L 61.991847562163386 -0.5 L 25 -0.5 Z M 96.43716006216339 0.5 L 133.42900762432677 0.5 L 133.42900762432677 3.5 L 140.42900762432677 0 L 133.42900762432677 -3.5 L 133.42900762432677 -0.5 L 96.43716006216339 -0.5 Z"/><text text-anchor="middle" pointer-events="none" font-size="8px" fill="#000000" x="79.21450381216339" y="3" transform="rotate(180 79.21450381216339 0)" font-family="sans-serif">ORIGIN</text></g><g class="relationship" transform="translate(235.81622168783593 131.55906760617626) rotate(354.4734914547746)"><path class="outline" fill="#A5ABB6" stroke="none" d="M 25 0.5 L 45.26847518915784 0.5 L 45.26847518915784 -0.5 L 25 -0.5 Z M 104.45597518915784 0.5 L 124.72445037831568 0.5 L 124.72445037831568 3.5 L 131.72445037831568 0 L 124.72445037831568 -3.5 L 124.72445037831568 -0.5 L 104.45597518915784 -0.5 Z"/><text text-anchor="middle" pointer-events="none" font-size="8px" fill="#000000" x="74.86222518915784" y="3" font-family="sans-serif">DESTINATION</text></g><g class="relationship" transform="translate(172.94625261500443 297.1233716093888) rotate(238.82257253822172)"><path class="outline" fill="#A5ABB6" stroke="none" d="M 25 0.5 L 78.28840141908528 0.5 L 78.28840141908528 -0.5 L 25 -0.5 Z M 112.73371391908528 0.5 L 166.02211533817055 0.5 L 166.02211533817055 3.5 L 173.02211533817055 0 L 166.02211533817055 -3.5 L 166.02211533817055 -0.5 L 112.73371391908528 -0.5 Z"/><text text-anchor="middle" pointer-events="none" font-size="8px" fill="#000000" x="95.51105766908528" y="3" transform="rotate(180 95.51105766908528 0)" font-family="sans-serif">ORIGIN</text></g><g class="relationship" transform="translate(172.94625261500443 297.1233716093888) rotate(487.94465264134834)"><path class="outline" fill="#A5ABB6" stroke="none" d="M 25 0.5 L 34.0736703710798 0.5 L 34.0736703710798 -0.5 L 25 -0.5 Z M 93.2611703710798 0.5 L 102.3348407421596 0.5 L 102.3348407421596 3.5 L 109.3348407421596 0 L 102.3348407421596 -3.5 L 102.3348407421596 -0.5 L 93.2611703710798 -0.5 Z"/><text text-anchor="middle" pointer-events="none" font-size="8px" fill="#000000" x="63.6674203710798" y="3" transform="rotate(180 63.6674203710798 0)" font-family="sans-serif">DESTINATION</text></g><g class="relationship" transform="translate(79.56328446929969 251.93036638388472) rotate(265.79617786745126)"><path class="outline" fill="#A5ABB6" stroke="none" d="M 25 0.5 L 41.55912484995828 0.5 L 41.55912484995828 -0.5 L 25 -0.5 Z M 76.00443734995828 0.5 L 92.56356219991656 0.5 L 92.56356219991656 3.5 L 99.56356219991656 0 L 92.56356219991656 -3.5 L 92.56356219991656 -0.5 L 76.00443734995828 -0.5 Z"/><text text-anchor="middle" pointer-events="none" font-size="8px" fill="#000000" x="58.78178109995828" y="3" transform="rotate(180 58.78178109995828 0)" font-family="sans-serif">ORIGIN</text></g><g class="relationship" transform="translate(79.56328446929969 251.93036638388472) rotate(445.91986480843445)"><path class="outline" fill="#A5ABB6" stroke="none" d="M 25 0.5 L 42.663329043027446 0.5 L 42.663329043027446 -0.5 L 25 -0.5 Z M 101.85082904302745 0.5 L 119.51415808605489 0.5 L 119.51415808605489 3.5 L 126.51415808605489 0 L 119.51415808605489 -3.5 L 119.51415808605489 -0.5 L 101.85082904302745 -0.5 Z"/><text text-anchor="middle" pointer-events="none" font-size="8px" fill="#000000" x="72.25707904302745" y="3" font-family="sans-serif">DESTINATION</text></g><g class="relationship" transform="translate(223.96066874716016 196.39192382955875) rotate(204.10416175122845)"><path class="outline" fill="#A5ABB6" stroke="none" d="M 25 0.5 L 63.37447494837069 0.5 L 63.37447494837069 -0.5 L 25 -0.5 Z M 97.81978744837069 0.5 L 136.19426239674138 0.5 L 136.19426239674138 3.5 L 143.19426239674138 0 L 136.19426239674138 -3.5 L 136.19426239674138 -0.5 L 97.81978744837069 -0.5 Z"/><text text-anchor="middle" pointer-events="none" font-size="8px" fill="#000000" x="80.59713119837069" y="3" transform="rotate(180 80.59713119837069 0)" font-family="sans-serif">ORIGIN</text></g><g class="relationship" transform="translate(223.96066874716016 196.39192382955875) rotate(386.5818555454737)"><path class="outline" fill="#A5ABB6" stroke="none" d="M 25 0.5 L 44.4192607971565 0.5 L 44.4192607971565 -0.5 L 25 -0.5 Z M 103.6067607971565 0.5 L 123.026021594313 0.5 L 123.026021594313 3.5 L 130.026021594313 0 L 123.026021594313 -3.5 L 123.026021594313 -0.5 L 103.6067607971565 -0.5 Z"/><text text-anchor="middle" pointer-events="none" font-size="8px" fill="#000000" x="74.0130107971565" y="3" font-family="sans-serif">DESTINATION</text></g><g class="relationship" transform="translate(113.1375246320336 301.4499588958269) rotate(256.191065534096)"><path class="outline" fill="#A5ABB6" stroke="none" d="M 25 0.5 L 68.73700363204594 0.5 L 68.73700363204594 -0.5 L 25 -0.5 Z M 103.18231613204594 0.5 L 146.91931976409188 0.5 L 146.91931976409188 3.5 L 153.91931976409188 0 L 146.91931976409188 -3.5 L 146.91931976409188 -0.5 L 103.18231613204594 -0.5 Z"/><text text-anchor="middle" pointer-events="none" font-size="8px" fill="#000000" x="85.95965988204594" y="3" transform="rotate(180 85.95965988204594 0)" font-family="sans-serif">ORIGIN</text></g><g class="relationship" transform="translate(113.1375246320336 301.4499588958269) rotate(462.6435534079542)"><path class="outline" fill="#A5ABB6" stroke="none" d="M 25 0.5 L 26.899920638432747 0.5 L 26.899920638432747 -0.5 L 25 -0.5 Z M 70.23585813843275 0.5 L 72.1357787768655 0.5 L 72.1357787768655 3.5 L 79.1357787768655 0 L 72.1357787768655 -3.5 L 72.1357787768655 -0.5 L 70.23585813843275 -0.5 Z"/><text text-anchor="middle" pointer-events="none" font-size="8px" fill="#000000" x="48.56788938843275" y="3" transform="rotate(180 48.56788938843275 0)" font-family="sans-serif">DESTIN…</text></g><g class="relationship" transform="translate(98.11189799464526 -33.03400280896184) rotate(459.7708512804651)"><path class="outline" fill="#A5ABB6" stroke="none" d="M 25 0.5 L 60.828258738637416 0.5 L 60.828258738637416 -0.5 L 25 -0.5 Z M 95.27357123863742 0.5 L 131.10182997727483 0.5 L 131.10182997727483 3.5 L 138.10182997727483 0 L 131.10182997727483 -3.5 L 131.10182997727483 -0.5 L 95.27357123863742 -0.5 Z"/><text text-anchor="middle" pointer-events="none" font-size="8px" fill="#000000" x="78.05091498863742" y="3" transform="rotate(180 78.05091498863742 0)" font-family="sans-serif">ORIGIN</text></g><g class="relationship" transform="translate(98.11189799464526 -33.03400280896184) rotate(283.58017241046696)"><path class="outline" fill="#A5ABB6" stroke="none" d="M 25 0.5 L 46.52928543134351 0.5 L 46.52928543134351 -0.5 L 25 -0.5 Z M 105.71678543134351 0.5 L 127.24607086268702 0.5 L 127.24607086268702 3.5 L 134.24607086268702 0 L 127.24607086268702 -3.5 L 127.24607086268702 -0.5 L 105.71678543134351 -0.5 Z"/><text text-anchor="middle" pointer-events="none" font-size="8px" fill="#000000" x="76.12303543134351" y="3" font-family="sans-serif">DESTINATION</text></g><g class="relationship" transform="translate(219.62876224590974 5.076642683705958) rotate(500.583071902705)"><path class="outline" fill="#A5ABB6" stroke="none" d="M 25 0.5 L 75.83895568458061 0.5 L 75.83895568458061 -0.5 L 25 -0.5 Z M 110.28426818458061 0.5 L 161.12322386916122 0.5 L 161.12322386916122 3.5 L 168.12322386916122 0 L 161.12322386916122 -3.5 L 161.12322386916122 -0.5 L 110.28426818458061 -0.5 Z"/><text text-anchor="middle" pointer-events="none" font-size="8px" fill="#000000" x="93.06161193458061" y="3" transform="rotate(180 93.06161193458061 0)" font-family="sans-serif">ORIGIN</text></g><g class="relationship" transform="translate(219.62876224590974 5.076642683705958) rotate(320.87025274489156)"><path class="outline" fill="#A5ABB6" stroke="none" d="M 25 0.5 L 26.27318480324115 0.5 L 26.27318480324115 -0.5 L 25 -0.5 Z M 69.60912230324115 0.5 L 70.8823071064823 0.5 L 70.8823071064823 3.5 L 77.8823071064823 0 L 70.8823071064823 -3.5 L 70.8823071064823 -0.5 L 69.60912230324115 -0.5 Z"/><text text-anchor="middle" pointer-events="none" font-size="8px" fill="#000000" x="47.94115355324115" y="3" font-family="sans-serif">DESTIN…</text></g><g class="relationship" transform="translate(-40.19760250767507 60.29685969178249) rotate(391.3533250045523)"><path class="outline" fill="#A5ABB6" stroke="none" d="M 25 0.5 L 44.05078336405997 0.5 L 44.05078336405997 -0.5 L 25 -0.5 Z M 78.49609586405997 0.5 L 97.54687922811993 0.5 L 97.54687922811993 3.5 L 104.54687922811993 0 L 97.54687922811993 -3.5 L 97.54687922811993 -0.5 L 78.49609586405997 -0.5 Z"/><text text-anchor="middle" pointer-events="none" font-size="8px" fill="#000000" x="61.27343961405997" y="3" font-family="sans-serif">ORIGIN</text></g><g class="relationship" transform="translate(-40.19760250767507 60.29685969178249) rotate(217.83158334370137)"><path class="outline" fill="#A5ABB6" stroke="none" d="M 25 0.5 L 47.24584232774656 0.5 L 47.24584232774656 -0.5 L 25 -0.5 Z M 106.43334232774656 0.5 L 128.67918465549312 0.5 L 128.67918465549312 3.5 L 135.67918465549312 0 L 128.67918465549312 -3.5 L 128.67918465549312 -0.5 L 106.43334232774656 -0.5 Z"/><text text-anchor="middle" pointer-events="none" font-size="8px" fill="#000000" x="76.83959232774656" y="3" transform="rotate(180 76.83959232774656 0)" font-family="sans-serif">DESTINATION</text></g><g class="relationship" transform="translate(38.12799946759063 -32.21274383662943) rotate(438.57943606210347)"><path class="outline" fill="#A5ABB6" stroke="none" d="M 25 0.5 L 60.8498020846276 0.5 L 60.8498020846276 -0.5 L 25 -0.5 Z M 95.2951145846276 0.5 L 131.1449166692552 0.5 L 131.1449166692552 3.5 L 138.1449166692552 0 L 131.1449166692552 -3.5 L 131.1449166692552 -0.5 L 95.2951145846276 -0.5 Z"/><text text-anchor="middle" pointer-events="none" font-size="8px" fill="#000000" x="78.0724583346276" y="3" font-family="sans-serif">ORIGIN</text></g><g class="relationship" transform="translate(38.12799946759063 -32.21274383662943) rotate(254.75878538679706)"><path class="outline" fill="#A5ABB6" stroke="none" d="M 25 0.5 L 45.27325437005945 0.5 L 45.27325437005945 -0.5 L 25 -0.5 Z M 104.46075437005945 0.5 L 124.7340087401189 0.5 L 124.7340087401189 3.5 L 131.7340087401189 0 L 124.7340087401189 -3.5 L 124.7340087401189 -0.5 L 104.46075437005945 -0.5 Z"/><text text-anchor="middle" pointer-events="none" font-size="8px" fill="#000000" x="74.86700437005945" y="3" transform="rotate(180 74.86700437005945 0)" font-family="sans-serif">DESTINATION</text></g><g class="relationship" transform="translate(139.37350068061747 247.67238504514015) rotate(240.1160660556336)"><path class="outline" fill="#A5ABB6" stroke="none" d="M 25 0.5 L 48.46154454001096 0.5 L 48.46154454001096 -0.5 L 25 -0.5 Z M 82.90685704001096 0.5 L 106.36840158002192 0.5 L 106.36840158002192 3.5 L 113.36840158002192 0 L 106.36840158002192 -3.5 L 106.36840158002192 -0.5 L 82.90685704001096 -0.5 Z"/><text text-anchor="middle" pointer-events="none" font-size="8px" fill="#000000" x="65.68420079001096" y="3" transform="rotate(180 65.68420079001096 0)" font-family="sans-serif">ORIGIN</text></g><g class="relationship" transform="translate(139.37350068061747 247.67238504514015) rotate(467.51208966747515)"><path class="outline" fill="#A5ABB6" stroke="none" d="M 25 0.5 L 48.376161205109796 0.5 L 48.376161205109796 -0.5 L 25 -0.5 Z M 107.5636612051098 0.5 L 130.9398224102196 0.5 L 130.9398224102196 3.5 L 137.9398224102196 0 L 130.9398224102196 -3.5 L 130.9398224102196 -0.5 L 107.5636612051098 -0.5 Z"/><text text-anchor="middle" pointer-events="none" font-size="8px" fill="#000000" x="77.9699112051098" y="3" transform="rotate(180 77.9699112051098 0)" font-family="sans-serif">DESTINATION</text></g><g class="relationship" transform="translate(164.877563286389 -19.201509133117696) rotate(482.73728241504745)"><path class="outline" fill="#A5ABB6" stroke="none" d="M 25 0.5 L 66.5993770431089 0.5 L 66.5993770431089 -0.5 L 25 -0.5 Z M 101.0446895431089 0.5 L 142.6440665862178 0.5 L 142.6440665862178 3.5 L 149.6440665862178 0 L 142.6440665862178 -3.5 L 142.6440665862178 -0.5 L 101.0446895431089 -0.5 Z"/><text text-anchor="middle" pointer-events="none" font-size="8px" fill="#000000" x="83.8220332931089" y="3" transform="rotate(180 83.8220332931089 0)" font-family="sans-serif">ORIGIN</text></g><g class="relationship" transform="translate(164.877563286389 -19.201509133117696) rotate(343.1910510395006)"><path class="outline" fill="#A5ABB6" stroke="none" d="M 25 0.5 L 37.18858148541861 0.5 L 37.18858148541861 -0.5 L 25 -0.5 Z M 96.37608148541861 0.5 L 108.56466297083722 0.5 L 108.56466297083722 3.5 L 115.56466297083722 0 L 108.56466297083722 -3.5 L 108.56466297083722 -0.5 L 96.37608148541861 -0.5 Z"/><text text-anchor="middle" pointer-events="none" font-size="8px" fill="#000000" x="66.78233148541861" y="3" font-family="sans-serif">DESTINATION</text></g><g class="relationship" transform="translate(-28.167563321998177 -8.08608222916892) rotate(414.0154731707939)"><path class="outline" fill="#A5ABB6" stroke="none" d="M 25 0.5 L 63.182491545449594 0.5 L 63.182491545449594 -0.5 L 25 -0.5 Z M 97.6278040454496 0.5 L 135.8102955908992 0.5 L 135.8102955908992 3.5 L 142.8102955908992 0 L 135.8102955908992 -3.5 L 135.8102955908992 -0.5 L 97.6278040454496 -0.5 Z"/><text text-anchor="middle" pointer-events="none" font-size="8px" fill="#000000" x="80.4051477954496" y="3" font-family="sans-serif">ORIGIN</text></g><g class="relationship" transform="translate(-28.167563321998177 -8.08608222916892) rotate(192.25087099174806)"><path class="outline" fill="#A5ABB6" stroke="none" d="M 25 0.5 L 37.993659355507376 0.5 L 37.993659355507376 -0.5 L 25 -0.5 Z M 97.18115935550738 0.5 L 110.17481871101475 0.5 L 110.17481871101475 3.5 L 117.17481871101475 0 L 110.17481871101475 -3.5 L 110.17481871101475 -0.5 L 97.18115935550738 -0.5 Z"/><text text-anchor="middle" pointer-events="none" font-size="8px" fill="#000000" x="67.58740935550738" y="3" transform="rotate(180 67.58740935550738 0)" font-family="sans-serif">DESTINATION</text></g><g class="relationship" transform="translate(53.391211782960234 305.74334027084655) rotate(275.46732734629546)"><path class="outline" fill="#A5ABB6" stroke="none" d="M 25 0.5 L 68.70488163043038 0.5 L 68.70488163043038 -0.5 L 25 -0.5 Z M 103.15019413043038 0.5 L 146.85507576086076 0.5 L 146.85507576086076 3.5 L 153.85507576086076 0 L 146.85507576086076 -3.5 L 146.85507576086076 -0.5 L 103.15019413043038 -0.5 Z"/><text text-anchor="middle" pointer-events="none" font-size="8px" fill="#000000" x="85.92753788043038" y="3" font-family="sans-serif">ORIGIN</text></g><g class="relationship" transform="translate(53.391211782960234 305.74334027084655) rotate(429.2076026146163)"><path class="outline" fill="#A5ABB6" stroke="none" d="M 25 0.5 L 26.880381902261917 0.5 L 26.880381902261917 -0.5 L 25 -0.5 Z M 70.21631940226192 0.5 L 72.09670130452383 0.5 L 72.09670130452383 3.5 L 79.09670130452383 0 L 72.09670130452383 -3.5 L 72.09670130452383 -0.5 L 70.21631940226192 -0.5 Z"/><text text-anchor="middle" pointer-events="none" font-size="8px" fill="#000000" x="48.54835065226192" y="3" font-family="sans-serif">DESTIN…</text></g><g class="relationship" transform="translate(-70.58285827564328 215.36353509902736) rotate(328.13296642837753)"><path class="outline" fill="#A5ABB6" stroke="none" d="M 25 0.5 L 62.29812376638239 0.5 L 62.29812376638239 -0.5 L 25 -0.5 Z M 96.74343626638239 0.5 L 134.04156003276478 0.5 L 134.04156003276478 3.5 L 141.04156003276478 0 L 134.04156003276478 -3.5 L 134.04156003276478 -0.5 L 96.74343626638239 -0.5 Z"/><text text-anchor="middle" pointer-events="none" font-size="8px" fill="#000000" x="79.52078001638239" y="3" font-family="sans-serif">ORIGIN</text></g><g class="relationship" transform="translate(-70.58285827564328 215.36353509902736) rotate(530.8901960994713)"><path class="outline" fill="#A5ABB6" stroke="none" d="M 25 0.5 L 35.09438621209631 0.5 L 35.09438621209631 -0.5 L 25 -0.5 Z M 94.28188621209631 0.5 L 104.37627242419262 0.5 L 104.37627242419262 3.5 L 111.37627242419262 0 L 104.37627242419262 -3.5 L 104.37627242419262 -0.5 L 94.28188621209631 -0.5 Z"/><text text-anchor="middle" pointer-events="none" font-size="8px" fill="#000000" x="64.68813621209631" y="3" transform="rotate(180 64.68813621209631 0)" font-family="sans-serif">DESTINATION</text></g><g class="relationship" transform="translate(-91.93805484092805 159.393026517767) rotate(348.9559675593807)"><path class="outline" fill="#A5ABB6" stroke="none" d="M 25 0.5 L 61.994362584494084 0.5 L 61.994362584494084 -0.5 L 25 -0.5 Z M 96.43967508449408 0.5 L 133.43403766898817 0.5 L 133.43403766898817 3.5 L 140.43403766898817 0 L 133.43403766898817 -3.5 L 133.43403766898817 -0.5 L 96.43967508449408 -0.5 Z"/><text text-anchor="middle" pointer-events="none" font-size="8px" fill="#000000" x="79.21701883449408" y="3" font-family="sans-serif">ORIGIN</text></g><g class="relationship" transform="translate(-91.93805484092805 159.393026517767) rotate(505.6055794555467)"><path class="outline" fill="#A5ABB6" stroke="none" d="M 25 0.5 L 35.55945453210349 0.5 L 35.55945453210349 -0.5 L 25 -0.5 Z M 94.74695453210349 0.5 L 105.30640906420697 0.5 L 105.30640906420697 3.5 L 112.30640906420697 0 L 105.30640906420697 -3.5 L 105.30640906420697 -0.5 L 94.74695453210349 -0.5 Z"/><text text-anchor="middle" pointer-events="none" font-size="8px" fill="#000000" x="65.15320453210349" y="3" transform="rotate(180 65.15320453210349 0)" font-family="sans-serif">DESTINATION</text></g><g class="relationship" transform="translate(19.7849395918897 256.31191728303384) rotate(291.4947649744304)"><path class="outline" fill="#A5ABB6" stroke="none" d="M 25 0.5 L 48.388978298217836 0.5 L 48.388978298217836 -0.5 L 25 -0.5 Z M 82.83429079821784 0.5 L 106.22326909643567 0.5 L 106.22326909643567 3.5 L 113.22326909643567 0 L 106.22326909643567 -3.5 L 106.22326909643567 -0.5 L 82.83429079821784 -0.5 Z"/><text text-anchor="middle" pointer-events="none" font-size="8px" fill="#000000" x="65.61163454821784" y="3" font-family="sans-serif">ORIGIN</text></g><g class="relationship" transform="translate(19.7849395918897 256.31191728303384) rotate(424.32108713197056)"><path class="outline" fill="#A5ABB6" stroke="none" d="M 25 0.5 L 48.32138679705679 0.5 L 48.32138679705679 -0.5 L 25 -0.5 Z M 107.50888679705679 0.5 L 130.83027359411358 0.5 L 130.83027359411358 3.5 L 137.83027359411358 0 L 130.83027359411358 -3.5 L 130.83027359411358 -0.5 L 107.50888679705679 -0.5 Z"/><text text-anchor="middle" pointer-events="none" font-size="8px" fill="#000000" x="77.91513679705679" y="3" font-family="sans-serif">DESTINATION</text></g><g class="relationship" transform="translate(-82.13977311550978 17.80610529189893) rotate(395.7647716248978)"><path class="outline" fill="#A5ABB6" stroke="none" d="M 25 0.5 L 73.2923631187804 0.5 L 73.2923631187804 -0.5 L 25 -0.5 Z M 107.7376756187804 0.5 L 156.0300387375608 0.5 L 156.0300387375608 3.5 L 163.0300387375608 0 L 156.0300387375608 -3.5 L 156.0300387375608 -0.5 L 107.7376756187804 -0.5 Z"/><text text-anchor="middle" pointer-events="none" font-size="8px" fill="#000000" x="90.5150193687804" y="3" font-family="sans-serif">ORIGIN</text></g><g class="relationship" transform="translate(-82.13977311550978 17.80610529189893) rotate(213.41716810352722)"><path class="outline" fill="#A5ABB6" stroke="none" d="M 25 0.5 L 25.72859871928948 0.5 L 25.72859871928948 -0.5 L 25 -0.5 Z M 69.06453621928948 0.5 L 69.79313493857896 0.5 L 69.79313493857896 3.5 L 76.79313493857896 0 L 69.79313493857896 -3.5 L 69.79313493857896 -0.5 L 69.06453621928948 -0.5 Z"/><text text-anchor="middle" pointer-events="none" font-size="8px" fill="#000000" x="47.39656746928948" y="3" transform="rotate(180 47.39656746928948 0)" font-family="sans-serif">DESTIN…</text></g><g class="relationship" transform="translate(-97.76865878725184 76.78657744469098) rotate(376.84136281285544)"><path class="outline" fill="#A5ABB6" stroke="none" d="M 25 0.5 L 67.14641915123987 0.5 L 67.14641915123987 -0.5 L 25 -0.5 Z M 101.59173165123987 0.5 L 143.73815080247974 0.5 L 143.73815080247974 3.5 L 150.73815080247974 0 L 143.73815080247974 -3.5 L 143.73815080247974 -0.5 L 101.59173165123987 -0.5 Z"/><text text-anchor="middle" pointer-events="none" font-size="8px" fill="#000000" x="84.36907540123987" y="3" font-family="sans-serif">ORIGIN</text></g><g class="relationship" transform="translate(-97.76865878725184 76.78657744469098) rotate(238.92232525292366)"><path class="outline" fill="#A5ABB6" stroke="none" d="M 25 0.5 L 34.06640972723632 0.5 L 34.06640972723632 -0.5 L 25 -0.5 Z M 93.25390972723632 0.5 L 102.32031945447264 0.5 L 102.32031945447264 3.5 L 109.32031945447264 0 L 102.32031945447264 -3.5 L 102.32031945447264 -0.5 L 93.25390972723632 -0.5 Z"/><text text-anchor="middle" pointer-events="none" font-size="8px" fill="#000000" x="63.66015972723632" y="3" transform="rotate(180 63.66015972723632 0)" font-family="sans-serif">DESTINATION</text></g><g class="relationship" transform="translate(-6.422031190470803 310.05046185652986) rotate(292.8539055101822)"><path class="outline" fill="#A5ABB6" stroke="none" d="M 25 0.5 L 78.21868670392276 0.5 L 78.21868670392276 -0.5 L 25 -0.5 Z M 112.66399920392276 0.5 L 165.8826859078455 0.5 L 165.8826859078455 3.5 L 172.8826859078455 0 L 165.8826859078455 -3.5 L 165.8826859078455 -0.5 L 112.66399920392276 -0.5 Z"/><text text-anchor="middle" pointer-events="none" font-size="8px" fill="#000000" x="95.44134295392276" y="3" font-family="sans-serif">ORIGIN</text></g><g class="relationship" transform="translate(-6.422031190470803 310.05046185652986) rotate(403.86624100519646)"><path class="outline" fill="#A5ABB6" stroke="none" d="M 25 0.5 L 34.01528169141973 0.5 L 34.01528169141973 -0.5 L 25 -0.5 Z M 93.20278169141973 0.5 L 102.21806338283946 0.5 L 102.21806338283946 3.5 L 109.21806338283946 0 L 102.21806338283946 -3.5 L 102.21806338283946 -0.5 L 93.20278169141973 -0.5 Z"/><text text-anchor="middle" pointer-events="none" font-size="8px" fill="#000000" x="63.60903169141973" y="3" font-family="sans-serif">DESTINATION</text></g><g class="relationship" transform="translate(230.08621094176925 64.01209207023345) rotate(518.2517516630991)"><path class="outline" fill="#A5ABB6" stroke="none" d="M 25 0.5 L 65.22180708653988 0.5 L 65.22180708653988 -0.5 L 25 -0.5 Z M 99.66711958653988 0.5 L 139.88892667307977 0.5 L 139.88892667307977 3.5 L 146.88892667307977 0 L 139.88892667307977 -3.5 L 139.88892667307977 -0.5 L 99.66711958653988 -0.5 Z"/><text text-anchor="middle" pointer-events="none" font-size="8px" fill="#000000" x="82.44446333653988" y="3" transform="rotate(180 82.44446333653988 0)" font-family="sans-serif">ORIGIN</text></g><g class="relationship" transform="translate(230.08621094176925 64.01209207023345) rotate(299.24439737037864)"><path class="outline" fill="#A5ABB6" stroke="none" d="M 25 0.5 L 37.883934974607996 0.5 L 37.883934974607996 -0.5 L 25 -0.5 Z M 97.071434974608 0.5 L 109.95536994921599 0.5 L 109.95536994921599 3.5 L 116.95536994921599 0 L 109.95536994921599 -3.5 L 109.95536994921599 -0.5 L 97.071434974608 -0.5 Z"/><text text-anchor="middle" pointer-events="none" font-size="8px" fill="#000000" x="67.477684974608" y="3" font-family="sans-serif">DESTINATION</text></g><g class="relationship" transform="translate(171.38200137584786 40.36012058027532) rotate(499.1336304211608)"><path class="outline" fill="#A5ABB6" stroke="none" d="M 25 0.5 L 46.02211322024374 0.5 L 46.02211322024374 -0.5 L 25 -0.5 Z M 80.46742572024374 0.5 L 101.48953894048748 0.5 L 101.48953894048748 3.5 L 108.48953894048748 0 L 101.48953894048748 -3.5 L 101.48953894048748 -0.5 L 80.46742572024374 -0.5 Z"/><text text-anchor="middle" pointer-events="none" font-size="8px" fill="#000000" x="63.24476947024374" y="3" transform="rotate(180 63.24476947024374 0)" font-family="sans-serif">ORIGIN</text></g><g class="relationship" transform="translate(171.38200137584786 40.36012058027532) rotate(321.9546964656781)"><path class="outline" fill="#A5ABB6" stroke="none" d="M 25 0.5 L 48.208251561995056 0.5 L 48.208251561995056 -0.5 L 25 -0.5 Z M 107.39575156199506 0.5 L 130.6040031239901 0.5 L 130.6040031239901 3.5 L 137.6040031239901 0 L 130.6040031239901 -3.5 L 130.6040031239901 -0.5 L 107.39575156199506 -0.5 Z"/><text text-anchor="middle" pointer-events="none" font-size="8px" fill="#000000" x="77.80200156199506" y="3" font-family="sans-serif">DESTINATION</text></g></g><g class="layer nodes"><g class="node" transform="translate(70.4321865961622,127.70193131540425)"><circle class="outline" cx="0" cy="0" r="25" fill="#ECB5C9" stroke="#da7298" stroke-width="2px"/><text text-anchor="middle" pointer-events="none" font-family="sans-serif" dy="1.5625" font-size="25" fill="#2A2C34"/><text text-anchor="middle" pointer-events="none" x="0" y="5" font-size="10px" fill="#2A2C34" font-family="sans-serif"> LAX</text></g><g class="node" transform="translate(391.81217727987814,116.46551980220612)"><circle class="outline" cx="0" cy="0" r="25" fill="#ECB5C9" stroke="#da7298" stroke-width="2px"/><text text-anchor="middle" pointer-events="none" font-family="sans-serif" dy="1.5625" font-size="25" fill="#2A2C34"/><text text-anchor="middle" pointer-events="none" x="0" y="5" font-size="10px" fill="#2A2C34" font-family="sans-serif"> LAS</text></g><g class="node" transform="translate(90.34376242561554,403.0605135933658)"><circle class="outline" cx="0" cy="0" r="25" fill="#ECB5C9" stroke="#da7298" stroke-width="2px"/><text text-anchor="middle" pointer-events="none" font-family="sans-serif" dy="1.5625" font-size="25" fill="#2A2C34"/><text text-anchor="middle" pointer-events="none" x="0" y="5" font-size="10px" fill="#2A2C34" font-family="sans-serif"> ABQ</text></g><g class="node" transform="translate(362.599817981475,265.76233301781264)"><circle class="outline" cx="0" cy="0" r="25" fill="#ECB5C9" stroke="#da7298" stroke-width="2px"/><text text-anchor="middle" pointer-events="none" font-family="sans-serif" dy="1.5625" font-size="25" fill="#2A2C34"/><text text-anchor="middle" pointer-events="none" x="0" y="5" font-size="10px" fill="#2A2C34" font-family="sans-serif"> IAH</text></g><g class="node" transform="translate(135.50379036456695,-187.8279221669267)"><circle class="outline" cx="0" cy="0" r="25" fill="#ECB5C9" stroke="#da7298" stroke-width="2px"/><text text-anchor="middle" pointer-events="none" font-family="sans-serif" dy="1.5625" font-size="25" fill="#2A2C34"/><text text-anchor="middle" pointer-events="none" x="0" y="5" font-size="10px" fill="#2A2C34" font-family="sans-serif"> EWR</text></g><g class="node" transform="translate(299.4365085850214,-59.85018335780442)"><circle class="outline" cx="0" cy="0" r="25" fill="#ECB5C9" stroke="#da7298" stroke-width="2px"/><text text-anchor="middle" pointer-events="none" font-family="sans-serif" dy="1.5625" font-size="25" fill="#2A2C34"/><text text-anchor="middle" pointer-events="none" x="0" y="5" font-size="10px" fill="#2A2C34" font-family="sans-serif"> FAT</text></g><g class="node" transform="translate(-167.10476012745357,-38.25451638396163)"><circle class="outline" cx="0" cy="0" r="25" fill="#ECB5C9" stroke="#da7298" stroke-width="2px"/><text text-anchor="middle" pointer-events="none" font-family="sans-serif" dy="1.5625" font-size="25" fill="#2A2C34"/><text text-anchor="middle" pointer-events="none" x="0" y="5" font-size="10px" fill="#2A2C34" font-family="sans-serif"> SMF</text></g><g class="node" transform="translate(-3.0747503263965643,-183.43404823902426)"><circle class="outline" cx="0" cy="0" r="25" fill="#ECB5C9" stroke="#da7298" stroke-width="2px"/><text text-anchor="middle" pointer-events="none" font-family="sans-serif" dy="1.5625" font-size="25" fill="#2A2C34"/><text text-anchor="middle" pointer-events="none" x="0" y="5" font-size="10px" fill="#2A2C34" font-family="sans-serif"> BOS</text></g><g class="node" transform="translate(-205.2389799288808,236.9555841362562)"><circle class="outline" cx="0" cy="0" r="25" fill="#ECB5C9" stroke="#da7298" stroke-width="2px"/><text text-anchor="middle" pointer-events="none" font-family="sans-serif" dy="1.5625" font-size="25" fill="#2A2C34"/><text text-anchor="middle" pointer-events="none" x="0" y="5" font-size="10px" fill="#2A2C34" font-family="sans-serif"> TUS</text></g><g class="node" transform="translate(235.81622168783593,131.55906760617626)"><circle class="outline" cx="0" cy="0" r="25" fill="#4C8EDA" stroke="#2870c2" stroke-width="2px"/><text text-anchor="middle" pointer-events="none" font-family="sans-serif" dy="1.5625" font-size="25" fill="#FFFFFF"/><text text-anchor="middle" pointer-events="none" x="0" y="5" font-size="10px" fill="#FFFFFF" font-family="sans-serif"> 11/29/20…</text></g><g class="node" transform="translate(172.94625261500443,297.1233716093888)"><circle class="outline" cx="0" cy="0" r="25" fill="#4C8EDA" stroke="#2870c2" stroke-width="2px"/><text text-anchor="middle" pointer-events="none" font-family="sans-serif" dy="1.5625" font-size="25" fill="#FFFFFF"/><text text-anchor="middle" pointer-events="none" x="0" y="5" font-size="10px" fill="#FFFFFF" font-family="sans-serif"> 11/3/2015</text></g><g class="node" transform="translate(79.56328446929969,251.93036638388472)"><circle class="outline" cx="0" cy="0" r="25" fill="#4C8EDA" stroke="#2870c2" stroke-width="2px"/><text text-anchor="middle" pointer-events="none" font-family="sans-serif" dy="1.5625" font-size="25" fill="#FFFFFF"/><text text-anchor="middle" pointer-events="none" x="0" y="5" font-size="10px" fill="#FFFFFF" font-family="sans-serif"> 11/1/2015</text></g><g class="node" transform="translate(223.96066874716016,196.39192382955875)"><circle class="outline" cx="0" cy="0" r="25" fill="#4C8EDA" stroke="#2870c2" stroke-width="2px"/><text text-anchor="middle" pointer-events="none" font-family="sans-serif" dy="1.5625" font-size="25" fill="#FFFFFF"/><text text-anchor="middle" pointer-events="none" x="0" y="5" font-size="10px" fill="#FFFFFF" font-family="sans-serif"> 11/30/20…</text></g><g class="node" transform="translate(113.1375246320336,301.4499588958269)"><circle class="outline" cx="0" cy="0" r="25" fill="#4C8EDA" stroke="#2870c2" stroke-width="2px"/><text text-anchor="middle" pointer-events="none" font-family="sans-serif" dy="1.5625" font-size="25" fill="#FFFFFF"/><text text-anchor="middle" pointer-events="none" x="0" y="5" font-size="10px" fill="#FFFFFF" font-family="sans-serif"> 11/4/2015</text></g><g class="node" transform="translate(98.11189799464526,-33.03400280896184)"><circle class="outline" cx="0" cy="0" r="25" fill="#4C8EDA" stroke="#2870c2" stroke-width="2px"/><text text-anchor="middle" pointer-events="none" font-family="sans-serif" dy="1.5625" font-size="25" fill="#FFFFFF"/><text text-anchor="middle" pointer-events="none" x="0" y="5" font-size="10px" fill="#FFFFFF" font-family="sans-serif"> 11/29/20…</text></g><g class="node" transform="translate(219.62876224590974,5.076642683705958)"><circle class="outline" cx="0" cy="0" r="25" fill="#4C8EDA" stroke="#2870c2" stroke-width="2px"/><text text-anchor="middle" pointer-events="none" font-family="sans-serif" dy="1.5625" font-size="25" fill="#FFFFFF"/><text text-anchor="middle" pointer-events="none" x="0" y="5" font-size="10px" fill="#FFFFFF" font-family="sans-serif"> 11/2/2015</text></g><g class="node" transform="translate(-40.19760250767507,60.29685969178249)"><circle class="outline" cx="0" cy="0" r="25" fill="#4C8EDA" stroke="#2870c2" stroke-width="2px"/><text text-anchor="middle" pointer-events="none" font-family="sans-serif" dy="1.5625" font-size="25" fill="#FFFFFF"/><text text-anchor="middle" pointer-events="none" x="0" y="5" font-size="10px" fill="#FFFFFF" font-family="sans-serif"> 11/3/2015</text></g><g class="node" transform="translate(38.12799946759063,-32.21274383662943)"><circle class="outline" cx="0" cy="0" r="25" fill="#4C8EDA" stroke="#2870c2" stroke-width="2px"/><text text-anchor="middle" pointer-events="none" font-family="sans-serif" dy="1.5625" font-size="25" fill="#FFFFFF"/><text text-anchor="middle" pointer-events="none" x="0" y="5" font-size="10px" fill="#FFFFFF" font-family="sans-serif"> 11/29/20…</text></g><g class="node" transform="translate(139.37350068061747,247.67238504514015)"><circle class="outline" cx="0" cy="0" r="25" fill="#4C8EDA" stroke="#2870c2" stroke-width="2px"/><text text-anchor="middle" pointer-events="none" font-family="sans-serif" dy="1.5625" font-size="25" fill="#FFFFFF"/><text text-anchor="middle" pointer-events="none" x="0" y="5" font-size="10px" fill="#FFFFFF" font-family="sans-serif"> 11/2/2015</text></g><g class="node" transform="translate(164.877563286389,-19.201509133117696)"><circle class="outline" cx="0" cy="0" r="25" fill="#4C8EDA" stroke="#2870c2" stroke-width="2px"/><text text-anchor="middle" pointer-events="none" font-family="sans-serif" dy="1.5625" font-size="25" fill="#FFFFFF"/><text text-anchor="middle" pointer-events="none" x="0" y="5" font-size="10px" fill="#FFFFFF" font-family="sans-serif"> 11/3/2015</text></g><g class="node" transform="translate(-28.167563321998177,-8.08608222916892)"><circle class="outline" cx="0" cy="0" r="25" fill="#4C8EDA" stroke="#2870c2" stroke-width="2px"/><text text-anchor="middle" pointer-events="none" font-family="sans-serif" dy="1.5625" font-size="25" fill="#FFFFFF"/><text text-anchor="middle" pointer-events="none" x="0" y="5" font-size="10px" fill="#FFFFFF" font-family="sans-serif"> 11/1/2015</text></g><g class="node" transform="translate(53.391211782960234,305.74334027084655)"><circle class="outline" cx="0" cy="0" r="25" fill="#4C8EDA" stroke="#2870c2" stroke-width="2px"/><text text-anchor="middle" pointer-events="none" font-family="sans-serif" dy="1.5625" font-size="25" fill="#FFFFFF"/><text text-anchor="middle" pointer-events="none" x="0" y="5" font-size="10px" fill="#FFFFFF" font-family="sans-serif"> 11/2/2015</text></g><g class="node" transform="translate(-70.58285827564328,215.36353509902736)"><circle class="outline" cx="0" cy="0" r="25" fill="#4C8EDA" stroke="#2870c2" stroke-width="2px"/><text text-anchor="middle" pointer-events="none" font-family="sans-serif" dy="1.5625" font-size="25" fill="#FFFFFF"/><text text-anchor="middle" pointer-events="none" x="0" y="5" font-size="10px" fill="#FFFFFF" font-family="sans-serif"> 11/2/2015</text></g><g class="node" transform="translate(-91.93805484092805,159.393026517767)"><circle class="outline" cx="0" cy="0" r="25" fill="#4C8EDA" stroke="#2870c2" stroke-width="2px"/><text text-anchor="middle" pointer-events="none" font-family="sans-serif" dy="1.5625" font-size="25" fill="#FFFFFF"/><text text-anchor="middle" pointer-events="none" x="0" y="5" font-size="10px" fill="#FFFFFF" font-family="sans-serif"> 11/1/2015</text></g><g class="node" transform="translate(19.7849395918897,256.31191728303384)"><circle class="outline" cx="0" cy="0" r="25" fill="#4C8EDA" stroke="#2870c2" stroke-width="2px"/><text text-anchor="middle" pointer-events="none" font-family="sans-serif" dy="1.5625" font-size="25" fill="#FFFFFF"/><text text-anchor="middle" pointer-events="none" x="0" y="5" font-size="10px" fill="#FFFFFF" font-family="sans-serif"> 11/3/2015</text></g><g class="node" transform="translate(-82.13977311550978,17.80610529189893)"><circle class="outline" cx="0" cy="0" r="25" fill="#4C8EDA" stroke="#2870c2" stroke-width="2px"/><text text-anchor="middle" pointer-events="none" font-family="sans-serif" dy="1.5625" font-size="25" fill="#FFFFFF"/><text text-anchor="middle" pointer-events="none" x="0" y="5" font-size="10px" fill="#FFFFFF" font-family="sans-serif"> 11/4/2015</text></g><g class="node" transform="translate(-97.76865878725184,76.78657744469098)"><circle class="outline" cx="0" cy="0" r="25" fill="#4C8EDA" stroke="#2870c2" stroke-width="2px"/><text text-anchor="middle" pointer-events="none" font-family="sans-serif" dy="1.5625" font-size="25" fill="#FFFFFF"/><text text-anchor="middle" pointer-events="none" x="0" y="5" font-size="10px" fill="#FFFFFF" font-family="sans-serif"> 11/2/2015</text></g><g class="node" transform="translate(-6.422031190470803,310.05046185652986)"><circle class="outline" cx="0" cy="0" r="25" fill="#4C8EDA" stroke="#2870c2" stroke-width="2px"/><text text-anchor="middle" pointer-events="none" font-family="sans-serif" dy="1.5625" font-size="25" fill="#FFFFFF"/><text text-anchor="middle" pointer-events="none" x="0" y="5" font-size="10px" fill="#FFFFFF" font-family="sans-serif"> 11/1/2015</text></g><g class="node" transform="translate(230.08621094176925,64.01209207023345)"><circle class="outline" cx="0" cy="0" r="25" fill="#4C8EDA" stroke="#2870c2" stroke-width="2px"/><text text-anchor="middle" pointer-events="none" font-family="sans-serif" dy="1.5625" font-size="25" fill="#FFFFFF"/><text text-anchor="middle" pointer-events="none" x="0" y="5" font-size="10px" fill="#FFFFFF" font-family="sans-serif"> 11/1/2015</text></g><g class="node" transform="translate(171.38200137584786,40.36012058027532)"><circle class="outline" cx="0" cy="0" r="25" fill="#4C8EDA" stroke="#2870c2" stroke-width="2px"/><text text-anchor="middle" pointer-events="none" font-family="sans-serif" dy="1.5625" font-size="25" fill="#FFFFFF"/><text text-anchor="middle" pointer-events="none" x="0" y="5" font-size="10px" fill="#FFFFFF" font-family="sans-serif"> 11/4/2015</text></g></g></svg>