<svg xmlns="http://www.w3.org/2000/svg" width="163.59693908691406" height="242.54129028320312" viewBox="-0.3729896545410156 -20.111021041870117 163.59693908691406 242.54129028320312"><title>Neo4j Graph Visualization</title><desc>Created using Neo4j (http://www.neo4j.com/)</desc><g class="layer relationships"><g class="relationship" transform="translate(134.22395795290467 8.88897855467919) rotate(520.9104582005515)"><path class="outline" fill="#A5ABB6" stroke="none" d="M 21.40063509461097,12.933012701892217 L 21.90063509461097,12.06698729810778 A 59.92174046314304 59.92174046314304 0 0 0 23.46261064928008,12.93797757162281 L 22.988677574950067,13.818538438943236 A 60.92174046314304 60.92174046314304 0 0 1 21.40063509461097,12.933012701892217 Z M 77.37406604421636,15.49563569329554 L 76.95529007813133,14.587546110583816 A 59.92174046314304 59.92174046314304 0 0 0 78.56796467411074,13.814453401121165 L 77.230897736059,11.12888977253796 L 85.05712429714683,11.142224483764346 L 80.35072059151304,17.395204905898773 L 79.0136536534613,14.709641277315567 A 60.92174046314304 60.92174046314304 0 0 1 77.37406604421636,15.49563569329554"/><text text-anchor="middle" pointer-events="none" font-size="8px" fill="#000000" x="49.99914869923999" y="23.566270101495235" transform="rotate(180 49.99914869923999 20.566270101495235)" font-family="sans-serif">PublicTrans…</text></g><g class="relationship" transform="translate(32.69523543453677 44.02569800570711) rotate(452.18492357322515)"><path class="outline" fill="#A5ABB6" stroke="none" d="M 25 0.5 L 40.18599184498862 0.5 L 40.18599184498862 -0.5 L 25 -0.5 Z M 59.52192934498862 0.5 L 74.70792118997724 0.5 L 74.70792118997724 3.5 L 81.70792118997724 0 L 74.70792118997724 -3.5 L 74.70792118997724 -0.5 L 59.52192934498862 -0.5 Z"/><text text-anchor="middle" pointer-events="none" font-size="8px" fill="#000000" x="49.85396059498862" y="3" transform="rotate(180 49.85396059498862 0)" font-family="sans-serif">trek</text></g><g class="relationship" transform="translate(28.627009979140325 150.65604071513695) rotate(383.4642940793174)"><path class="outline" fill="#A5ABB6" stroke="none" d="M 25 0.5 L 40.544544964182926 0.5 L 40.544544964182926 -0.5 L 25 -0.5 Z M 59.880482464182926 0.5 L 75.42502742836585 0.5 L 75.42502742836585 3.5 L 82.42502742836585 0 L 75.42502742836585 -3.5 L 75.42502742836585 -0.5 L 59.880482464182926 -0.5 Z"/><text text-anchor="middle" pointer-events="none" font-size="8px" fill="#000000" x="50.212513714182926" y="3" font-family="sans-serif">trek</text></g><g class="relationship" transform="translate(134.22395795290467 8.88897855467919) rotate(520.9104582005515)"><path class="outline" fill="#A5ABB6" stroke="none" d="M 25 0.5 L 40.55044185100343 0.5 L 40.55044185100343 -0.5 L 25 -0.5 Z M 59.88637935100343 0.5 L 75.43682120200685 0.5 L 75.43682120200685 3.5 L 82.43682120200685 0 L 75.43682120200685 -3.5 L 75.43682120200685 -0.5 L 59.88637935100343 -0.5 Z"/><text text-anchor="middle" pointer-events="none" font-size="8px" fill="#000000" x="50.21841060100343" y="3" transform="rotate(180 50.21841060100343 0)" font-family="sans-serif">trek</text></g><g class="relationship" transform="translate(134.22395795290467 8.88897855467919) rotate(520.9104582005515)"><path class="outline" fill="#A5ABB6" stroke="none" d="M 21.40063509461097,-12.933012701892217 L 21.90063509461097,-12.06698729810778 A 59.92174046314304 59.92174046314304 0 0 1 39.195745053133436,-18.741091601825374 L 38.98437335105747,-19.718497353579224 A 60.92174046314304 60.92174046314304 0 0 0 21.40063509461097,-12.933012701892217 Z M 61.04523155261394,-20.398794134752244 L 60.89448526472698,-19.410221650465786 A 59.92174046314304 59.92174046314304 0 0 1 78.56796467411074,-13.814453401121165 L 77.230897736059,-11.12888977253796 L 85.05712429714683,-11.142224483764346 L 80.35072059151304,-17.395204905898773 L 79.0136536534613,-14.709641277315567 A 60.92174046314304 60.92174046314304 0 0 0 61.04523155261394,-20.398794134752244"/><text text-anchor="middle" pointer-events="none" font-size="8px" fill="#000000" x="49.99914869923999" y="-17.566270101495235" transform="rotate(180 49.99914869923999 -20.566270101495235)" font-family="sans-serif">road</text></g></g><g class="layer nodes"><g class="node" transform="translate(134.22395795290467,8.88897855467919)"><circle class="outline" cx="0" cy="0" r="25" fill="#F16667" stroke="#eb2728" stroke-width="2px"/><text text-anchor="middle" pointer-events="none" font-family="sans-serif" dy="1.5625" font-size="25" fill="#FFFFFF"/><text text-anchor="middle" pointer-events="none" x="0" y="5" font-size="10px" fill="#FFFFFF" font-family="sans-serif"> Darjeeling</text></g><g class="node" transform="translate(127.16888905147958,193.4302687838891)"><circle class="outline" cx="0" cy="0" r="25" fill="#D9C8AE" stroke="#c0a378" stroke-width="2px"/><text text-anchor="middle" pointer-events="none" font-family="sans-serif" dy="1.5625" font-size="25" fill="#2A2C34"/><text text-anchor="middle" pointer-events="none" x="0" y="5" font-size="10px" fill="#2A2C34" font-family="sans-serif"> Sandak…</text></g><g class="node" transform="translate(32.69523543453677,44.02569800570711)"><circle class="outline" cx="0" cy="0" r="25" fill="#F16667" stroke="#eb2728" stroke-width="2px"/><text text-anchor="middle" pointer-events="none" font-family="sans-serif" dy="1.5625" font-size="25" fill="#FFFFFF"/><text text-anchor="middle" pointer-events="none" x="0" y="5" font-size="10px" fill="#FFFFFF" font-family="sans-serif"> Rimbik</text></g><g class="node" transform="translate(28.627009979140325,150.65604071513695)"><circle class="outline" cx="0" cy="0" r="25" fill="#8DCC93" stroke="#5db665" stroke-width="2px"/><text text-anchor="middle" pointer-events="none" font-family="sans-serif" dy="1.5625" font-size="25" fill="#2A2C34"/><text text-anchor="middle" pointer-events="none" x="0" y="5" font-size="10px" fill="#2A2C34" font-family="sans-serif"> BhikeBh…</text></g></g></svg>