<svg xmlns="http://www.w3.org/2000/svg" width="361.57232666015625" height="362.79779052734375" viewBox="-89.83059692382812 -75.3763656616211 361.57232666015625 362.79779052734375"><title>Neo4j Graph Visualization</title><desc>Created using Neo4j (http://www.neo4j.com/)</desc><g class="layer relationships"><g class="relationship" transform="translate(138.04352394668797 258.42142282834897) rotate(329.16500525169374)"><path class="outline" fill="#A5ABB6" stroke="none" d="M 21.40063509461097,12.933012701892217 L 21.90063509461097,12.06698729810778 A 57.54223867498475 57.54223867498475 0 0 0 24.22612249620881,13.339110773589724 L 23.766536068136954,14.227243823944313 A 58.54223867498475 58.54223867498475 0 0 1 21.40063509461097,12.933012701892217 Z M 74.2540179564185,15.816318507027475 L 73.85119319163218,14.901041385673047 A 57.54223867498475 57.54223867498475 0 0 0 76.2520776276099,13.777678702946604 L 74.9184317467123,11.090414543180229 L 82.7446349805477,11.113715674146611 L 78.03027213547337,17.3606975826351 L 76.69662625457576,14.673433422868728 A 58.54223867498475 58.54223867498475 0 0 1 74.2540179564185,15.816318507027475"/><text text-anchor="middle" pointer-events="none" font-size="8px" fill="#000000" x="48.84580081229349" y="23.247456998194835" font-family="sans-serif">PRODUCED</text></g><g class="relationship" transform="translate(138.04352394668797 258.42142282834897) rotate(329.16500525169374)"><path class="outline" fill="#A5ABB6" stroke="none" d="M 25 0.5 L 25.6239389893004 0.5 L 25.6239389893004 -0.5 L 25 -0.5 Z M 72.5145639893004 0.5 L 73.1385029786008 0.5 L 73.1385029786008 3.5 L 80.1385029786008 0 L 73.1385029786008 -3.5 L 73.1385029786008 -0.5 L 72.5145639893004 -0.5 Z"/><text text-anchor="middle" pointer-events="none" font-size="8px" fill="#000000" x="49.0692514893004" y="3" font-family="sans-serif">DIRECTED</text></g><g class="relationship" transform="translate(138.04352394668797 258.42142282834897) rotate(329.16500525169374)"><path class="outline" fill="#A5ABB6" stroke="none" d="M 21.40063509461097,-12.933012701892217 L 21.90063509461097,-12.06698729810778 A 57.54223867498475 57.54223867498475 0 0 1 31.502151320370764,-16.48922810872697 L 31.169011638058297,-17.43210559391195 A 58.54223867498475 58.54223867498475 0 0 0 21.40063509461097,-12.933012701892217 Z M 66.66465042799045,-18.549317600756723 L 66.39146483827162,-17.587356253523907 A 57.54223867498475 57.54223867498475 0 0 1 76.2520776276099,-13.777678702946604 L 74.9184317467123,-11.090414543180229 L 82.7446349805477,-11.113715674146611 L 78.03027213547337,-17.3606975826351 L 76.69662625457576,-14.673433422868728 A 58.54223867498475 58.54223867498475 0 0 0 66.66465042799045,-18.549317600756723"/><text text-anchor="middle" pointer-events="none" font-size="8px" fill="#000000" x="48.84580081229348" y="-17.247456998194835" font-family="sans-serif">WROTE</text></g><g class="relationship" transform="translate(242.74173153204552 14.560243936793974) rotate(202.57833910636987)"><path class="outline" fill="#A5ABB6" stroke="none" d="M 24.018736134675446,6.953439040707552 L 24.277555179777966,5.987513214418485 A 99.60053911288294 99.60053911288294 0 0 0 25.358480939647965,6.270657398096489 L 25.110514504074445,7.239426022087258 A 100.60053911288294 100.60053911288294 0 0 1 24.018736134675446,6.953439040707552 Z M 71.7994246606993,8.003461197688779 L 71.58328910866582,7.02709783134037 A 99.60053911288294 99.60053911288294 0 0 0 72.67290057318553,6.779473148627865 L 71.99167447230423,3.8578415839917524 L 79.60357857415,5.676884174010848 L 73.58120204102727,10.674981901476016 L 72.89997594014596,7.753350336839903 A 100.60053911288294 100.60053911288294 0 0 1 71.7994246606993,8.003461197688779"/><text text-anchor="middle" pointer-events="none" font-size="8px" fill="#000000" x="48.41820740245554" y="12.867918864936726" transform="rotate(180 48.41820740245554 9.867918864936726)" font-family="sans-serif">DIRECTED</text></g><g class="relationship" transform="translate(242.74173153204552 14.560243936793974) rotate(202.57833910636987)"><path class="outline" fill="#A5ABB6" stroke="none" d="M 24.018736134675446,-6.953439040707552 L 24.277555179777966,-5.987513214418485 A 99.60053911288294 99.60053911288294 0 0 1 30.751889846768623,-7.492683021266231 L 30.55807380992947,-8.47372091241212 A 100.60053911288294 100.60053911288294 0 0 0 24.018736134675446,-6.953439040707552 Z M 66.3143960784999,-9.05885104013808 L 66.15278338122016,-8.07199677730189 A 99.60053911288294 99.60053911288294 0 0 1 72.67290057318553,-6.779473148627865 L 71.99167447230423,-3.8578415839917524 L 79.60357857415,-5.676884174010848 L 73.58120204102727,-10.674981901476016 L 72.89997594014596,-7.753350336839903 A 100.60053911288294 100.60053911288294 0 0 0 66.3143960784999,-9.05885104013808"/><text text-anchor="middle" pointer-events="none" font-size="8px" fill="#000000" x="48.41820740245555" y="-6.867918864936726" transform="rotate(180 48.41820740245555 -9.867918864936726)" font-family="sans-serif">WROTE</text></g><g class="relationship" transform="translate(45.04597035654325 -46.37636492592419) rotate(371.6792318542149)"><path class="outline" fill="#A5ABB6" stroke="none" d="M 24.018736134675446,6.953439040707552 L 24.277555179777966,5.987513214418485 A 99.42492722929309 99.42492722929309 0 0 0 25.315681160591755,6.259681689766595 L 25.067303420398815,7.228344943006164 A 100.42492722929309 100.42492722929309 0 0 1 24.018736134675446,6.953439040707552 Z M 71.75510422907064,7.992967406274531 L 71.53857945853461,7.016690281814306 A 99.42492722929309 99.42492722929309 0 0 0 72.58506110775559,6.778662155624149 L 71.90391076149353,3.8570129285972152 L 79.51576769519545,5.676252885517164 L 73.49326156943835,10.674194458326728 L 72.81211122317629,7.752545231299793 A 100.42492722929309 100.42492722929309 0 0 1 71.75510422907064,7.992967406274531"/><text text-anchor="middle" pointer-events="none" font-size="8px" fill="#000000" x="48.37433380473611" y="12.861937339137015" font-family="sans-serif">DIRECTED</text></g><g class="relationship" transform="translate(45.04597035654325 -46.37636492592419) rotate(371.6792318542149)"><path class="outline" fill="#A5ABB6" stroke="none" d="M 24.018736134675446,-6.953439040707552 L 24.277555179777966,-5.987513214418485 A 99.42492722929309 99.42492722929309 0 0 1 30.70858044271684,-7.483722674465 L 30.514443620092667,-8.464697135957948 A 100.42492722929309 100.42492722929309 0 0 0 24.018736134675446,-6.953439040707552 Z M 66.27039979686295,-9.050284951508246 L 66.10848999676833,-8.063479389792406 A 99.42492722929309 99.42492722929309 0 0 1 72.58506110775559,-6.778662155624149 L 71.90391076149353,-3.8570129285972152 L 79.51576769519545,-5.676252885517164 L 73.49326156943835,-10.674194458326728 L 72.81211122317629,-7.752545231299793 A 100.42492722929309 100.42492722929309 0 0 0 66.27039979686295,-9.050284951508246"/><text text-anchor="middle" pointer-events="none" font-size="8px" fill="#000000" x="48.374333804736104" y="-6.861937339137015" font-family="sans-serif">WROTE</text></g><g class="relationship" transform="translate(-60.83059753530354 97.67092979904297) rotate(431.276401249277)"><path class="outline" fill="#A5ABB6" stroke="none" d="M 21.40063509461097,12.933012701892217 L 21.90063509461097,12.06698729810778 A 57.14491766810119 57.14491766810119 0 0 0 31.315594019255744,16.41605146734964 L 30.98034985947459,17.35818274977934 A 58.14491766810119 58.14491766810119 0 0 1 21.40063509461097,12.933012701892217 Z M 66.47013544332002,18.479075472185983 L 66.19501180128526,17.517666619723343 A 57.14491766810119 57.14491766810119 0 0 0 75.8656500735216,13.771392990036226 L 74.53258894502333,11.083838706363634 L 82.35878692350737,11.108842737485674 L 77.64306491151932,17.35479870159968 L 76.31000378302105,14.66724441792709 A 58.14491766810119 58.14491766810119 0 0 1 66.47013544332002,18.479075472185983"/><text text-anchor="middle" pointer-events="none" font-size="8px" fill="#000000" x="48.653371296307924" y="23.19422509867531" font-family="sans-serif">WROTE</text></g><g class="relationship" transform="translate(-60.83059753530354 97.67092979904297) rotate(431.276401249277)"><path class="outline" fill="#A5ABB6" stroke="none" d="M 25 0.5 L 25.4322238103895 0.5 L 25.4322238103895 -0.5 L 25 -0.5 Z M 72.3228488103895 0.5 L 72.755072620779 0.5 L 72.755072620779 3.5 L 79.755072620779 0 L 72.755072620779 -3.5 L 72.755072620779 -0.5 L 72.3228488103895 -0.5 Z"/><text text-anchor="middle" pointer-events="none" font-size="8px" fill="#000000" x="48.8775363103895" y="3" font-family="sans-serif">DIRECTED</text></g><g class="relationship" transform="translate(-60.83059753530354 97.67092979904297) rotate(431.276401249277)"><path class="outline" fill="#A5ABB6" stroke="none" d="M 21.40063509461097,-12.933012701892217 L 21.90063509461097,-12.06698729810778 A 57.14491766810119 57.14491766810119 0 0 1 24.048637598963328,-13.246466153437616 L 23.58622628737177,-14.133131692923712 A 58.14491766810119 58.14491766810119 0 0 0 21.40063509461097,-12.933012701892217 Z M 74.05303613954648,-15.727051716834254 L 73.64749867975536,-14.812973290928596 A 57.14491766810119 57.14491766810119 0 0 1 75.8656500735216,-13.771392990036226 L 74.53258894502333,-11.083838706363634 L 82.35878692350737,-11.108842737485674 L 77.64306491151932,-17.35479870159968 L 76.31000378302105,-14.66724441792709 A 58.14491766810119 58.14491766810119 0 0 0 74.05303613954648,-15.727051716834254"/><text text-anchor="middle" pointer-events="none" font-size="8px" fill="#000000" x="48.65337129630792" y="-17.19422509867531" font-family="sans-serif">PRODUCED</text></g></g><g class="layer nodes"><g class="node" transform="translate(138.04352394668797,258.42142282834897)"><circle class="outline" cx="0" cy="0" r="25" fill="#F79767" stroke="#f36924" stroke-width="2px"/><text text-anchor="middle" pointer-events="none" font-family="sans-serif" dy="1.5625" font-size="25" fill="#FFFFFF"/><text text-anchor="middle" pointer-events="none" font-family="sans-serif" dy="1.5625" font-size="25" fill="#FFFFFF"/><text text-anchor="middle" pointer-events="none" x="0" y="0" font-size="10px" fill="#FFFFFF" font-family="sans-serif"> Cameron</text><text text-anchor="middle" pointer-events="none" x="0" y="10" font-size="10px" fill="#FFFFFF" font-family="sans-serif"> Crowe</text></g><g class="node" transform="translate(228.32038353359374,204.53085378600773)"><circle class="outline" cx="0" cy="0" r="25" fill="#57C7E3" stroke="#23b3d7" stroke-width="2px"/><text text-anchor="middle" pointer-events="none" font-family="sans-serif" dy="1.5625" font-size="25" fill="#2A2C34"/><text text-anchor="middle" pointer-events="none" font-family="sans-serif" dy="1.5625" font-size="25" fill="#2A2C34"/><text text-anchor="middle" pointer-events="none" x="0" y="0" font-size="10px" fill="#2A2C34" font-family="sans-serif"> Jerry</text><text text-anchor="middle" pointer-events="none" x="0" y="10" font-size="10px" fill="#2A2C34" font-family="sans-serif"> Maguire</text></g><g class="node" transform="translate(242.74173153204552,14.560243936793974)"><circle class="outline" cx="0" cy="0" r="25" fill="#F79767" stroke="#f36924" stroke-width="2px"/><text text-anchor="middle" pointer-events="none" font-family="sans-serif" dy="1.5625" font-size="25" fill="#FFFFFF"/><text text-anchor="middle" pointer-events="none" font-family="sans-serif" dy="1.5625" font-size="25" fill="#FFFFFF"/><text text-anchor="middle" pointer-events="none" x="0" y="0" font-size="10px" fill="#FFFFFF" font-family="sans-serif"> Lilly</text><text text-anchor="middle" pointer-events="none" x="0" y="10" font-size="10px" fill="#FFFFFF" font-family="sans-serif"> Wacho…</text></g><g class="node" transform="translate(146.75846469077436,-25.351166186547196)"><circle class="outline" cx="0" cy="0" r="25" fill="#57C7E3" stroke="#23b3d7" stroke-width="2px"/><text text-anchor="middle" pointer-events="none" font-family="sans-serif" dy="1.5625" font-size="25" fill="#2A2C34"/><text text-anchor="middle" pointer-events="none" font-family="sans-serif" dy="1.5625" font-size="25" fill="#2A2C34"/><text text-anchor="middle" pointer-events="none" x="0" y="0" font-size="10px" fill="#2A2C34" font-family="sans-serif"> Speed</text><text text-anchor="middle" pointer-events="none" x="0" y="10" font-size="10px" fill="#2A2C34" font-family="sans-serif"> Racer</text></g><g class="node" transform="translate(45.04597035654325,-46.37636492592419)"><circle class="outline" cx="0" cy="0" r="25" fill="#F79767" stroke="#f36924" stroke-width="2px"/><text text-anchor="middle" pointer-events="none" font-family="sans-serif" dy="1.5625" font-size="25" fill="#FFFFFF"/><text text-anchor="middle" pointer-events="none" font-family="sans-serif" dy="1.5625" font-size="25" fill="#FFFFFF"/><text text-anchor="middle" pointer-events="none" x="0" y="0" font-size="10px" fill="#FFFFFF" font-family="sans-serif"> Lana</text><text text-anchor="middle" pointer-events="none" x="0" y="10" font-size="10px" fill="#FFFFFF" font-family="sans-serif"> Wacho…</text></g><g class="node" transform="translate(-60.83059753530354,97.67092979904297)"><circle class="outline" cx="0" cy="0" r="25" fill="#F79767" stroke="#f36924" stroke-width="2px"/><text text-anchor="middle" pointer-events="none" font-family="sans-serif" dy="1.5625" font-size="25" fill="#FFFFFF"/><text text-anchor="middle" pointer-events="none" font-family="sans-serif" dy="1.5625" font-size="25" fill="#FFFFFF"/><text text-anchor="middle" pointer-events="none" x="0" y="0" font-size="10px" fill="#FFFFFF" font-family="sans-serif"> Nancy</text><text text-anchor="middle" pointer-events="none" x="0" y="10" font-size="10px" fill="#FFFFFF" font-family="sans-serif"> Meyers</text></g><g class="node" transform="translate(-27.203894853606187,196.88216961863907)"><circle class="outline" cx="0" cy="0" r="25" fill="#57C7E3" stroke="#23b3d7" stroke-width="2px"/><text text-anchor="middle" pointer-events="none" font-family="sans-serif" dy="1.5625" font-size="25" fill="#2A2C34"/><text text-anchor="middle" pointer-events="none" x="0" y="5" font-size="10px" fill="#2A2C34" font-family="sans-serif"> Somethi…</text></g></g></svg>